<svg xmlns="http://www.w3.org/2000/svg" viewBox="0 0 256 256" width="50px" height="50px" fill-rule="nonzero"><g fill="#ffffff" fill-rule="nonzero" stroke="none"><path d="M218.123047,218.128906 L180.191406,218.128906 L180.191406,158.29 C180.191406,144.049 179.936,125.684 160.401406,125.684 C140.583906,125.684 137.549,141.245 137.549,157.24 L137.549,218.126719 L99.615,218.126719 L99.615,95.965 L136.026,95.965 L136.026,112.593 L136.53,112.593 C144.404,99.605 158.66,91.83 173.822,92.408 C212.258,92.408 218.128906,117.442 218.128906,150.031 L218.128906,218.128906 Z M56.694,79.335 C44.667,79.336 34.902,69.573 34.9,57.545 C34.899,45.518 44.662,35.752 56.689,35.75 C68.716,35.749 78.481,45.512 78.483,57.539 C78.484,63.316 76.183,68.858 72.089,72.953 C67.994,77.048 62.472,79.349 56.694,79.35 M75.66,218.128906 L37.685,218.128906 L37.685,95.965 L75.66,95.965 Z"/></g></svg>
