<svg xmlns="http://www.w3.org/2000/svg" width="272" height="292" viewBox="0 0 272 292"><circle cx="11.67159038450855" cy="7.07359641001424" r="0.5" fill="#9d7fea" fill-opacity="0.28"/><circle cx="19.386036664285264" cy="6.3390213301710805" r="0.54" fill="#9d7fea" fill-opacity="0.29"/><circle cx="33.65930182465719" cy="6.713638659959891" r="0.73" fill="#9d7fea" fill-opacity="0.32"/><circle cx="70.25372626505052" cy="6.082408861267291" r="1.03" fill="#9d7fea" fill-opacity="0.42"/><circle cx="81.83743165755669" cy="6.032716306679044" r="1.28" fill="#9d7fea" fill-opacity="0.44"/><circle cx="88.98189918983407" cy="7.259428917065563" r="1.39" fill="#9d7fea" fill-opacity="0.46"/><circle cx="98.30109967967219" cy="6.841233548265826" r="1.36" fill="#9d7fea" fill-opacity="0.49"/><circle cx="111.81281302928599" cy="6.688482874359851" r="1.58" fill="#9d7fea" fill-opacity="0.52"/><circle cx="117.9680445499206" cy="7.359462630702625" r="1.79" fill="#9d7fea" fill-opacity="0.53"/><circle cx="124.53255745557989" cy="7.225122939460011" r="1.68" fill="#9d7fea" fill-opacity="0.55"/><circle cx="132.21665622534476" cy="7.345057405414172" r="1.78" fill="#9d7fea" fill-opacity="0.57"/><circle cx="168.4635574769797" cy="6.659858580376335" r="2.2" fill="#9d7fea" fill-opacity="0.66"/><circle cx="174.48452607669373" cy="6.281423077742351" r="2.04" fill="#9d7fea" fill-opacity="0.68"/><circle cx="39.51606078157892" cy="12.501443217717743" r="0.79" fill="#9d7fea" fill-opacity="0.34"/><circle cx="54.83569043997534" cy="13.851103797081851" r="1.0" fill="#9d7fea" fill-opacity="0.38"/><circle cx="62.81811889176021" cy="14.159826484241368" r="1.01" fill="#9d7fea" fill-opacity="0.4"/><circle cx="74.72655713615903" cy="12.833029956541285" r="1.05" fill="#9d7fea" fill-opacity="0.43"/><circle cx="83.27185823395395" cy="12.657448160336536" r="1.13" fill="#9d7fea" fill-opacity="0.45"/><circle cx="91.47113979675892" cy="12.229108554407059" r="1.31" fill="#9d7fea" fill-opacity="0.47"/><circle cx="109.70679021962619" cy="13.432242232123734" r="1.75" fill="#9d7fea" fill-opacity="0.51"/><circle cx="124.82303185638303" cy="12.202498437891702" r="1.77" fill="#9d7fea" fill-opacity="0.55"/><circle cx="167.06635636495326" cy="12.886089955660289" r="2.27" fill="#9d7fea" fill-opacity="0.66"/><circle cx="173.07983917438236" cy="14.301000565541383" r="2.41" fill="#9d7fea" fill-opacity="0.67"/><circle cx="27.815949165593274" cy="19.015549209493837" r="0.62" fill="#9d7fea" fill-opacity="0.31"/><circle cx="49.120226796495515" cy="20.451173100259407" r="0.9" fill="#9d7fea" fill-opacity="0.36"/><circle cx="53.478940072493124" cy="20.50931092430054" r="0.95" fill="#9d7fea" fill-opacity="0.37"/><circle cx="61.99343846537477" cy="19.54427077673911" r="1.07" fill="#9d7fea" fill-opacity="0.39"/><circle cx="68.26061598024849" cy="20.08417198338016" r="1.19" fill="#9d7fea" fill-opacity="0.41"/><circle cx="76.97391992614187" cy="21.382572352698364" r="1.12" fill="#9d7fea" fill-opacity="0.43"/><circle cx="89.76849226225897" cy="20.573248689155676" r="1.35" fill="#9d7fea" fill-opacity="0.46"/><circle cx="105.59279366839561" cy="18.868803353459942" r="1.31" fill="#9d7fea" fill-opacity="0.5"/><circle cx="109.67567794111648" cy="21.26560112670314" r="1.6" fill="#9d7fea" fill-opacity="0.51"/><circle cx="125.54634344303982" cy="20.579516823993078" r="1.73" fill="#9d7fea" fill-opacity="0.55"/><circle cx="130.75862484350247" cy="20.130858397166403" r="1.91" fill="#9d7fea" fill-opacity="0.57"/><circle cx="137.70769427606686" cy="20.052804356780076" r="1.71" fill="#9d7fea" fill-opacity="0.58"/><circle cx="147.26366927999285" cy="19.87501108520951" r="1.9" fill="#9d7fea" fill-opacity="0.61"/><circle cx="154.58442572018035" cy="20.905010360821194" r="1.81" fill="#9d7fea" fill-opacity="0.63"/><circle cx="159.81178643033192" cy="18.49403171085672" r="2.35" fill="#9d7fea" fill-opacity="0.64"/><circle cx="165.97735837442534" cy="20.032548810328777" r="2.1" fill="#9d7fea" fill-opacity="0.65"/><circle cx="174.67347225502127" cy="21.397343740752827" r="2.24" fill="#9d7fea" fill-opacity="0.68"/><circle cx="182.47832771653123" cy="19.45832800181531" r="2.47" fill="#9d7fea" fill-opacity="0.7"/><circle cx="26.790073549319654" cy="26.21181155475238" r="0.62" fill="#9d7fea" fill-opacity="0.31"/><circle cx="39.40971932186311" cy="26.9533540137569" r="0.78" fill="#9d7fea" fill-opacity="0.34"/><circle cx="48.8149426839724" cy="26.95200145065629" r="0.84" fill="#9d7fea" fill-opacity="0.36"/><circle cx="76.55997819006758" cy="27.9197513302192" r="1.07" fill="#9d7fea" fill-opacity="0.43"/><circle cx="81.92022446392733" cy="26.621322941596407" r="1.17" fill="#9d7fea" fill-opacity="0.44"/><circle cx="88.43328076082837" cy="27.183749353108215" r="1.26" fill="#9d7fea" fill-opacity="0.46"/><circle cx="97.12159814477047" cy="26.623453296764048" r="1.54" fill="#9d7fea" fill-opacity="0.48"/><circle cx="103.38697742219634" cy="27.47700877507649" r="1.48" fill="#9d7fea" fill-opacity="0.5"/><circle cx="112.32705000168582" cy="25.64548483509976" r="1.48" fill="#9d7fea" fill-opacity="0.52"/><circle cx="118.46818647261624" cy="27.946691139034577" r="1.58" fill="#9d7fea" fill-opacity="0.54"/><circle cx="126.09025525857201" cy="25.69743615409039" r="1.66" fill="#9d7fea" fill-opacity="0.56"/><circle cx="132.09749116535554" cy="28.123011473406272" r="1.86" fill="#9d7fea" fill-opacity="0.57"/><circle cx="138.38585369684628" cy="26.14532422899202" r="1.7" fill="#9d7fea" fill-opacity="0.59"/><circle cx="154.0195723959777" cy="26.613485118308" r="1.91" fill="#9d7fea" fill-opacity="0.63"/><circle cx="166.81442870782388" cy="26.334358917738474" r="2.47" fill="#9d7fea" fill-opacity="0.66"/><circle cx="173.81438875176255" cy="27.446784716031647" r="2.12" fill="#9d7fea" fill-opacity="0.67"/><circle cx="179.71857404441158" cy="26.161094009134537" r="2.45" fill="#9d7fea" fill-opacity="0.69"/><circle cx="187.59612265075052" cy="26.539513329034914" r="2.19" fill="#9d7fea" fill-opacity="0.71"/><circle cx="33.5493593472728" cy="35.33646182724008" r="0.72" fill="#9d7fea" fill-opacity="0.32"/><circle cx="95.86093564456637" cy="35.12263553292898" r="1.49" fill="#9d7fea" fill-opacity="0.48"/><circle cx="102.82493902018018" cy="34.073568286342415" r="1.4" fill="#9d7fea" fill-opacity="0.5"/><circle cx="111.85817157532195" cy="34.35320341485466" r="1.78" fill="#9d7fea" fill-opacity="0.52"/><circle cx="117.65536891857565" cy="33.916138803716684" r="1.54" fill="#9d7fea" fill-opacity="0.53"/><circle cx="126.08044473222567" cy="34.31211538530702" r="1.74" fill="#9d7fea" fill-opacity="0.56"/><circle cx="133.5517875312736" cy="35.56457632544744" r="1.78" fill="#9d7fea" fill-opacity="0.57"/><circle cx="154.39963016322392" cy="34.575133264064895" r="1.76" fill="#9d7fea" fill-opacity="0.63"/><circle cx="189.27590507208936" cy="33.172884894958045" r="2.47" fill="#9d7fea" fill-opacity="0.71"/><circle cx="41.952767641527544" cy="41.996815540774215" r="0.78" fill="#9d7fea" fill-opacity="0.34"/><circle cx="47.31026958292442" cy="41.849134361479784" r="0.81" fill="#9d7fea" fill-opacity="0.36"/><circle cx="55.649884894790986" cy="41.6369790922888" r="0.85" fill="#9d7fea" fill-opacity="0.38"/><circle cx="69.25530529115446" cy="41.464292887165506" r="1.15" fill="#9d7fea" fill-opacity="0.41"/><circle cx="83.87111239102494" cy="42.03386180936173" r="1.28" fill="#9d7fea" fill-opacity="0.45"/><circle cx="105.45863385420517" cy="42.529523889702865" r="1.48" fill="#9d7fea" fill-opacity="0.5"/><circle cx="110.33374361903431" cy="40.06837084668998" r="1.63" fill="#9d7fea" fill-opacity="0.52"/><circle cx="117.28749422668933" cy="42.28786565109226" r="1.58" fill="#9d7fea" fill-opacity="0.53"/><circle cx="124.72946085137767" cy="41.705473233072766" r="1.79" fill="#9d7fea" fill-opacity="0.55"/><circle cx="140.3135482553422" cy="40.08606105848758" r="1.9" fill="#9d7fea" fill-opacity="0.59"/><circle cx="145.6556873224624" cy="41.08146137589721" r="1.76" fill="#9d7fea" fill-opacity="0.6"/><circle cx="153.87098045656091" cy="41.61855426241903" r="1.99" fill="#9d7fea" fill-opacity="0.62"/><circle cx="159.85444700647574" cy="40.506719502994045" r="1.93" fill="#9d7fea" fill-opacity="0.64"/><circle cx="173.90191535592157" cy="41.234585770076656" r="2.01" fill="#9d7fea" fill-opacity="0.67"/><circle cx="181.33623465600692" cy="42.15256899526939" r="2.42" fill="#9d7fea" fill-opacity="0.69"/><circle cx="188.50779084150543" cy="42.23150179691524" r="2.26" fill="#9d7fea" fill-opacity="0.71"/><circle cx="194.06337965811" cy="42.077960820752715" r="2.07" fill="#9d7fea" fill-opacity="0.73"/><circle cx="34.65165548140541" cy="49.197780116436626" r="0.72" fill="#9d7fea" fill-opacity="0.33"/><circle cx="63.505424987215655" cy="47.65379007804425" r="1.0" fill="#9d7fea" fill-opacity="0.4"/><circle cx="68.08836036302111" cy="47.117049361585636" r="1.15" fill="#9d7fea" fill-opacity="0.41"/><circle cx="74.68960727698581" cy="49.42604955538589" r="1.03" fill="#9d7fea" fill-opacity="0.43"/><circle cx="83.66257637573734" cy="47.684887963090326" r="1.12" fill="#9d7fea" fill-opacity="0.45"/><circle cx="90.032937702208" cy="48.06376113753421" r="1.35" fill="#9d7fea" fill-opacity="0.47"/><circle cx="109.85369978443367" cy="47.429373961478255" r="1.59" fill="#9d7fea" fill-opacity="0.51"/><circle cx="125.18545645572839" cy="46.67712334819602" r="1.68" fill="#9d7fea" fill-opacity="0.55"/><circle cx="130.84852507195214" cy="47.393705928599125" r="1.76" fill="#9d7fea" fill-opacity="0.57"/><circle cx="140.42209278479325" cy="47.53656711015133" r="2.12" fill="#9d7fea" fill-opacity="0.59"/><circle cx="146.3391153182878" cy="46.74253934881877" r="1.86" fill="#9d7fea" fill-opacity="0.61"/><circle cx="154.4319454178936" cy="48.43478308380939" r="2.29" fill="#9d7fea" fill-opacity="0.63"/><circle cx="174.55188205182472" cy="49.59738990150705" r="2.53" fill="#9d7fea" fill-opacity="0.68"/><circle cx="179.645530717144" cy="48.129019701638725" r="2.26" fill="#9d7fea" fill-opacity="0.69"/><circle cx="187.7421154079406" cy="48.92986314730331" r="2.04" fill="#9d7fea" fill-opacity="0.71"/><circle cx="195.29783691787466" cy="49.49270493315382" r="2.63" fill="#9d7fea" fill-opacity="0.73"/><circle cx="40.79989739893064" cy="56.44319185784641" r="0.79" fill="#9d7fea" fill-opacity="0.34"/><circle cx="54.52305500854568" cy="53.47370494011194" r="1.01" fill="#9d7fea" fill-opacity="0.38"/><circle cx="75.26212853848514" cy="54.10196951277765" r="1.28" fill="#9d7fea" fill-opacity="0.43"/><circle cx="89.3671912653748" cy="56.087985230067034" r="1.33" fill="#9d7fea" fill-opacity="0.46"/><circle cx="104.67880350248888" cy="54.56813017182244" r="1.47" fill="#9d7fea" fill-opacity="0.5"/><circle cx="111.52286775699244" cy="55.17950381869303" r="1.54" fill="#9d7fea" fill-opacity="0.52"/><circle cx="119.44705445613621" cy="55.81536713508711" r="1.65" fill="#9d7fea" fill-opacity="0.54"/><circle cx="126.27310791601394" cy="55.7904599897907" r="1.96" fill="#9d7fea" fill-opacity="0.56"/><circle cx="130.7749390466846" cy="55.31359785703329" r="1.75" fill="#9d7fea" fill-opacity="0.57"/><circle cx="140.48223151545298" cy="56.4959108074433" r="1.95" fill="#9d7fea" fill-opacity="0.59"/><circle cx="146.85031451490775" cy="55.62756258819392" r="2.13" fill="#9d7fea" fill-opacity="0.61"/><circle cx="152.51615565217904" cy="53.870097857318555" r="2.11" fill="#9d7fea" fill-opacity="0.62"/><circle cx="159.7072056639469" cy="54.99630896349668" r="2.3" fill="#9d7fea" fill-opacity="0.64"/><circle cx="166.70239880714354" cy="56.317472131552535" r="2.1" fill="#9d7fea" fill-opacity="0.66"/><circle cx="174.46989948068583" cy="55.907449793092766" r="2.38" fill="#9d7fea" fill-opacity="0.68"/><circle cx="187.8551274085365" cy="53.76578555132592" r="2.29" fill="#9d7fea" fill-opacity="0.71"/><circle cx="195.33604098121702" cy="55.74611392989205" r="2.77" fill="#9d7fea" fill-opacity="0.73"/><circle cx="201.44207798917014" cy="53.65743616883472" r="2.47" fill="#9d7fea" fill-opacity="0.74"/><circle cx="55.275096022330125" cy="61.16206370348772" r="0.95" fill="#9d7fea" fill-opacity="0.38"/><circle cx="75.03413369003847" cy="62.640707674197216" r="1.25" fill="#9d7fea" fill-opacity="0.43"/><circle cx="102.9916346615071" cy="61.66542820016963" r="1.27" fill="#9d7fea" fill-opacity="0.5"/><circle cx="112.20793335713937" cy="61.3755247363013" r="1.55" fill="#9d7fea" fill-opacity="0.52"/><circle cx="125.975806328769" cy="63.212660760172014" r="1.96" fill="#9d7fea" fill-opacity="0.55"/><circle cx="130.6012183968288" cy="60.87291390586056" r="1.54" fill="#9d7fea" fill-opacity="0.57"/><circle cx="139.98496458283998" cy="62.08504874008817" r="1.75" fill="#9d7fea" fill-opacity="0.59"/><circle cx="152.73439905431866" cy="60.80210285631027" r="1.99" fill="#9d7fea" fill-opacity="0.62"/><circle cx="159.03381592886987" cy="60.525242798240896" r="2.27" fill="#9d7fea" fill-opacity="0.64"/><circle cx="165.89268481690962" cy="61.13081304677638" r="2.26" fill="#9d7fea" fill-opacity="0.65"/><circle cx="174.9739796328379" cy="62.46413696069966" r="2.01" fill="#9d7fea" fill-opacity="0.68"/><circle cx="186.73157332832835" cy="62.88008170298693" r="2.73" fill="#9d7fea" fill-opacity="0.71"/><circle cx="196.51955797571125" cy="63.447170393886665" r="2.38" fill="#9d7fea" fill-opacity="0.73"/><circle cx="203.46283205565703" cy="62.744267266824664" r="2.62" fill="#9d7fea" fill-opacity="0.75"/><circle cx="207.46509124642157" cy="60.455899199019996" r="2.8" fill="#9d7fea" fill-opacity="0.76"/><circle cx="67.99127949540681" cy="70.45921035093276" r="0.97" fill="#9d7fea" fill-opacity="0.41"/><circle cx="76.59072506312486" cy="68.6094747101041" r="1.25" fill="#9d7fea" fill-opacity="0.43"/><circle cx="82.11405505260184" cy="68.258577289948" r="1.36" fill="#9d7fea" fill-opacity="0.45"/><circle cx="88.67554243837446" cy="70.06893791128212" r="1.2" fill="#9d7fea" fill-opacity="0.46"/><circle cx="97.51755962325144" cy="69.38762344538402" r="1.42" fill="#9d7fea" fill-opacity="0.48"/><circle cx="117.14262066001285" cy="68.5020072724096" r="1.65" fill="#9d7fea" fill-opacity="0.53"/><circle cx="125.78962778594904" cy="68.22903333552361" r="1.63" fill="#9d7fea" fill-opacity="0.55"/><circle cx="131.12531819447196" cy="67.8474329988325" r="2.01" fill="#9d7fea" fill-opacity="0.57"/><circle cx="144.73386813747652" cy="68.36148018274027" r="1.63" fill="#9d7fea" fill-opacity="0.6"/><circle cx="152.75079751018214" cy="69.60555384387933" r="1.82" fill="#9d7fea" fill-opacity="0.62"/><circle cx="158.4057869480298" cy="69.94384059565158" r="1.95" fill="#9d7fea" fill-opacity="0.64"/><circle cx="165.8948390525433" cy="68.25879678376153" r="1.99" fill="#9d7fea" fill-opacity="0.65"/><circle cx="173.1450115433939" cy="69.05588447920383" r="2.1" fill="#9d7fea" fill-opacity="0.67"/><circle cx="180.73226073976628" cy="68.94741086635783" r="2.53" fill="#9d7fea" fill-opacity="0.69"/><circle cx="189.55327323421318" cy="67.95422991878482" r="2.26" fill="#9d7fea" fill-opacity="0.71"/><circle cx="195.24495779182465" cy="69.08677745878141" r="2.34" fill="#9d7fea" fill-opacity="0.73"/><circle cx="200.63044825943217" cy="67.42520421160337" r="2.8" fill="#9d7fea" fill-opacity="0.74"/><circle cx="208.8720934086834" cy="67.68730768900699" r="2.64" fill="#9d7fea" fill-opacity="0.76"/><circle cx="215.90488272962142" cy="69.44467366405476" r="2.45" fill="#9d7fea" fill-opacity="0.78"/><circle cx="69.38381626508243" cy="75.68088022499208" r="0.98" fill="#9d7fea" fill-opacity="0.41"/><circle cx="82.33623036700568" cy="77.46338991893339" r="1.23" fill="#9d7fea" fill-opacity="0.45"/><circle cx="98.51702396258585" cy="75.82216072712612" r="1.56" fill="#9d7fea" fill-opacity="0.49"/><circle cx="102.55216826724063" cy="75.4269523861706" r="1.35" fill="#9d7fea" fill-opacity="0.5"/><circle cx="118.62190699576698" cy="75.34915397343484" r="1.48" fill="#9d7fea" fill-opacity="0.54"/><circle cx="125.92586791645391" cy="75.74155232663652" r="1.96" fill="#9d7fea" fill-opacity="0.55"/><circle cx="132.2600478447206" cy="74.46801002098043" r="2.05" fill="#9d7fea" fill-opacity="0.57"/><circle cx="139.4866416589265" cy="76.8273612866086" r="2.12" fill="#9d7fea" fill-opacity="0.59"/><circle cx="147.30230395254134" cy="76.36053108425435" r="1.71" fill="#9d7fea" fill-opacity="0.61"/><circle cx="151.4233451146363" cy="75.05735356862981" r="2.22" fill="#9d7fea" fill-opacity="0.62"/><circle cx="174.27517812299305" cy="77.37495704531527" r="1.96" fill="#9d7fea" fill-opacity="0.68"/><circle cx="181.52531294592876" cy="76.54734951578456" r="2.27" fill="#9d7fea" fill-opacity="0.69"/><circle cx="187.15662811321624" cy="77.23581834228133" r="2.57" fill="#9d7fea" fill-opacity="0.71"/><circle cx="195.1399134843041" cy="74.50544430195951" r="2.27" fill="#9d7fea" fill-opacity="0.73"/><circle cx="201.17664101236275" cy="75.09127211139058" r="2.71" fill="#9d7fea" fill-opacity="0.74"/><circle cx="217.4580362826192" cy="76.26564026355932" r="2.53" fill="#9d7fea" fill-opacity="0.78"/><circle cx="56.58928653228852" cy="82.76178796023159" r="0.87" fill="#9d7fea" fill-opacity="0.38"/><circle cx="69.39759873473093" cy="81.82322616730934" r="1.12" fill="#9d7fea" fill-opacity="0.41"/><circle cx="82.5998964434329" cy="83.48654127443304" r="1.15" fill="#9d7fea" fill-opacity="0.45"/><circle cx="109.76839628713206" cy="82.34001934663172" r="1.73" fill="#9d7fea" fill-opacity="0.51"/><circle cx="118.82922905022303" cy="82.06021178346585" r="1.42" fill="#9d7fea" fill-opacity="0.54"/><circle cx="123.75917807547455" cy="81.75773297347486" r="1.74" fill="#9d7fea" fill-opacity="0.55"/><circle cx="132.40553818975377" cy="84.43378479538826" r="1.92" fill="#9d7fea" fill-opacity="0.57"/><circle cx="137.95336950121157" cy="84.31347968279606" r="2.04" fill="#9d7fea" fill-opacity="0.58"/><circle cx="144.6584205603131" cy="83.6847928590559" r="1.95" fill="#9d7fea" fill-opacity="0.6"/><circle cx="152.25704558166018" cy="83.87355160668181" r="2.18" fill="#9d7fea" fill-opacity="0.62"/><circle cx="172.73368043674472" cy="83.48893227103444" r="2.21" fill="#9d7fea" fill-opacity="0.67"/><circle cx="181.46214825853193" cy="83.27606053358677" r="2.7" fill="#9d7fea" fill-opacity="0.69"/><circle cx="196.2582281993429" cy="82.29278926331251" r="2.8" fill="#9d7fea" fill-opacity="0.73"/><circle cx="200.9377810468795" cy="82.02069492541267" r="2.8" fill="#9d7fea" fill-opacity="0.74"/><circle cx="210.12619017352716" cy="84.57737937252007" r="2.76" fill="#9d7fea" fill-opacity="0.77"/><circle cx="217.19359427270504" cy="82.60511899516638" r="2.47" fill="#9d7fea" fill-opacity="0.78"/><circle cx="224.1413946983937" cy="82.81669121057797" r="2.8" fill="#9d7fea" fill-opacity="0.8"/><circle cx="68.78439675765583" cy="90.73857102470332" r="1.0" fill="#9d7fea" fill-opacity="0.41"/><circle cx="90.84610578621783" cy="88.98371234314496" r="1.28" fill="#9d7fea" fill-opacity="0.47"/><circle cx="95.6688732792224" cy="89.78616094573297" r="1.51" fill="#9d7fea" fill-opacity="0.48"/><circle cx="110.0674616043669" cy="89.25244274277672" r="1.74" fill="#9d7fea" fill-opacity="0.52"/><circle cx="117.08805937016108" cy="89.94341757014976" r="1.62" fill="#9d7fea" fill-opacity="0.53"/><circle cx="131.70584933388972" cy="90.0901009469871" r="1.8" fill="#9d7fea" fill-opacity="0.57"/><circle cx="140.02453874169473" cy="88.71543034206684" r="2.07" fill="#9d7fea" fill-opacity="0.59"/><circle cx="144.94621468919928" cy="88.95572045563357" r="1.72" fill="#9d7fea" fill-opacity="0.6"/><circle cx="159.46964601817666" cy="90.90593733917765" r="2.16" fill="#9d7fea" fill-opacity="0.64"/><circle cx="167.40883178251627" cy="89.66960187730515" r="2.25" fill="#9d7fea" fill-opacity="0.66"/><circle cx="174.41157503437114" cy="88.61529461310501" r="2.32" fill="#9d7fea" fill-opacity="0.68"/><circle cx="188.98485717416906" cy="89.07934443651172" r="2.17" fill="#9d7fea" fill-opacity="0.71"/><circle cx="193.59656374486448" cy="90.87257422646948" r="2.56" fill="#9d7fea" fill-opacity="0.72"/><circle cx="202.65531549568294" cy="90.30037767050159" r="2.41" fill="#9d7fea" fill-opacity="0.75"/><circle cx="209.09620987214416" cy="89.18722512971934" r="2.8" fill="#9d7fea" fill-opacity="0.76"/><circle cx="215.4950326799793" cy="90.70723278313456" r="2.68" fill="#9d7fea" fill-opacity="0.78"/><circle cx="69.87332054464386" cy="96.24456294283904" r="1.1" fill="#9d7fea" fill-opacity="0.41"/><circle cx="76.28160438327264" cy="97.17755433238383" r="1.14" fill="#9d7fea" fill-opacity="0.43"/><circle cx="82.66429748725919" cy="98.58201355712518" r="1.12" fill="#9d7fea" fill-opacity="0.45"/><circle cx="89.65968285760124" cy="97.85125474625825" r="1.17" fill="#9d7fea" fill-opacity="0.46"/><circle cx="96.72237893108583" cy="96.84602722210843" r="1.31" fill="#9d7fea" fill-opacity="0.48"/><circle cx="110.99182898595929" cy="97.10468507671706" r="1.72" fill="#9d7fea" fill-opacity="0.52"/><circle cx="133.001268505234" cy="98.50701294024601" r="1.95" fill="#9d7fea" fill-opacity="0.57"/><circle cx="138.67056752927405" cy="96.19295715868618" r="2.04" fill="#9d7fea" fill-opacity="0.59"/><circle cx="145.25921017183572" cy="96.6016065691124" r="1.79" fill="#9d7fea" fill-opacity="0.6"/><circle cx="158.98878386797915" cy="97.91121125883147" r="2.26" fill="#9d7fea" fill-opacity="0.64"/><circle cx="167.62649358121683" cy="98.24227298233448" r="1.84" fill="#9d7fea" fill-opacity="0.66"/><circle cx="180.39221639963048" cy="96.27887163641462" r="2.68" fill="#9d7fea" fill-opacity="0.69"/><circle cx="188.5534055915188" cy="96.74780313559036" r="2.07" fill="#9d7fea" fill-opacity="0.71"/><circle cx="194.84886474484506" cy="95.8589759275754" r="2.75" fill="#9d7fea" fill-opacity="0.73"/><circle cx="201.68265057752154" cy="97.6602121417413" r="2.8" fill="#9d7fea" fill-opacity="0.74"/><circle cx="208.7663444152044" cy="96.15866552901339" r="2.64" fill="#9d7fea" fill-opacity="0.76"/><circle cx="215.27350414296927" cy="97.5868013733493" r="2.8" fill="#9d7fea" fill-opacity="0.78"/><circle cx="222.60518336362924" cy="96.24773897003148" r="2.6" fill="#9d7fea" fill-opacity="0.8"/><circle cx="229.0961290734637" cy="98.34265317797198" r="2.41" fill="#9d7fea" fill-opacity="0.81"/><circle cx="74.82553388830136" cy="103.2824701634706" r="1.2" fill="#9d7fea" fill-opacity="0.43"/><circle cx="83.5869456688335" cy="102.50227873706729" r="1.31" fill="#9d7fea" fill-opacity="0.45"/><circle cx="90.5821382244359" cy="104.07313167811664" r="1.49" fill="#9d7fea" fill-opacity="0.47"/><circle cx="97.26680237244383" cy="103.78331139896926" r="1.51" fill="#9d7fea" fill-opacity="0.48"/><circle cx="111.32638795320739" cy="103.15508889287672" r="1.34" fill="#9d7fea" fill-opacity="0.52"/><circle cx="118.10793632732917" cy="104.72782756852783" r="1.62" fill="#9d7fea" fill-opacity="0.54"/><circle cx="132.1698434030332" cy="103.49956167149195" r="1.84" fill="#9d7fea" fill-opacity="0.57"/><circle cx="139.8183570218103" cy="105.15940731559073" r="1.92" fill="#9d7fea" fill-opacity="0.59"/><circle cx="146.41552884600358" cy="104.59265652950818" r="1.92" fill="#9d7fea" fill-opacity="0.61"/><circle cx="153.9900986172104" cy="102.46371115161455" r="1.82" fill="#9d7fea" fill-opacity="0.62"/><circle cx="158.98305626502716" cy="104.54965930267446" r="1.98" fill="#9d7fea" fill-opacity="0.64"/><circle cx="165.65036032927105" cy="102.56436181296726" r="1.88" fill="#9d7fea" fill-opacity="0.65"/><circle cx="174.6289208196114" cy="103.04286288513319" r="2.2" fill="#9d7fea" fill-opacity="0.68"/><circle cx="181.65491059412756" cy="105.01255360796517" r="2.12" fill="#9d7fea" fill-opacity="0.69"/><circle cx="186.83979792222658" cy="104.19015035822785" r="2.57" fill="#9d7fea" fill-opacity="0.71"/><circle cx="194.09122770683229" cy="104.60994907560753" r="2.29" fill="#9d7fea" fill-opacity="0.73"/><circle cx="200.9782124387455" cy="104.81401244727813" r="2.59" fill="#9d7fea" fill-opacity="0.74"/><circle cx="210.06356575702947" cy="102.48618258298441" r="2.5" fill="#9d7fea" fill-opacity="0.77"/><circle cx="215.1800801094812" cy="105.05106144479277" r="2.62" fill="#9d7fea" fill-opacity="0.78"/><circle cx="222.78841284008854" cy="102.84182507244674" r="2.31" fill="#9d7fea" fill-opacity="0.8"/><circle cx="230.00110556268606" cy="104.40957180163937" r="2.8" fill="#9d7fea" fill-opacity="0.82"/><circle cx="236.4623711709641" cy="105.4823433061462" r="2.58" fill="#9d7fea" fill-opacity="0.83"/><circle cx="76.09529115245007" cy="109.87387083031815" r="1.09" fill="#9d7fea" fill-opacity="0.43"/><circle cx="82.0751593376168" cy="109.54588115331526" r="1.2" fill="#9d7fea" fill-opacity="0.45"/><circle cx="97.86299712668036" cy="109.47610465059267" r="1.27" fill="#9d7fea" fill-opacity="0.48"/><circle cx="109.75870204418621" cy="110.06876075778189" r="1.37" fill="#9d7fea" fill-opacity="0.51"/><circle cx="125.73899504901375" cy="111.82673503566106" r="1.63" fill="#9d7fea" fill-opacity="0.55"/><circle cx="146.60132977933304" cy="110.80107967971539" r="1.89" fill="#9d7fea" fill-opacity="0.61"/><circle cx="161.02355469637092" cy="110.16398360922818" r="2.09" fill="#9d7fea" fill-opacity="0.64"/><circle cx="173.6255682309296" cy="111.38720175495527" r="2.06" fill="#9d7fea" fill-opacity="0.67"/><circle cx="181.9468374269218" cy="112.48295601853073" r="2.37" fill="#9d7fea" fill-opacity="0.69"/><circle cx="186.89495666087944" cy="110.93216794582919" r="2.25" fill="#9d7fea" fill-opacity="0.71"/><circle cx="194.80007723516414" cy="110.83301863116773" r="2.58" fill="#9d7fea" fill-opacity="0.73"/><circle cx="201.34810625510454" cy="112.34932610828383" r="2.39" fill="#9d7fea" fill-opacity="0.74"/><circle cx="207.6130933545661" cy="109.47420885205804" r="2.56" fill="#9d7fea" fill-opacity="0.76"/><circle cx="214.7841888503961" cy="109.55216489569177" r="2.43" fill="#9d7fea" fill-opacity="0.78"/><circle cx="224.34620964886622" cy="110.54305340392584" r="2.66" fill="#9d7fea" fill-opacity="0.8"/><circle cx="230.49696206563647" cy="109.8513199828217" r="2.5" fill="#9d7fea" fill-opacity="0.82"/><circle cx="235.60231824275522" cy="111.20139805778612" r="2.43" fill="#9d7fea" fill-opacity="0.83"/><circle cx="90.26914112528019" cy="117.52689413319798" r="1.2" fill="#9d7fea" fill-opacity="0.47"/><circle cx="96.20822610649685" cy="117.24713602417366" r="1.21" fill="#9d7fea" fill-opacity="0.48"/><circle cx="103.73212666812333" cy="117.68565679515804" r="1.32" fill="#9d7fea" fill-opacity="0.5"/><circle cx="111.04668163367337" cy="118.99293785930612" r="1.76" fill="#9d7fea" fill-opacity="0.52"/><circle cx="124.30088653727492" cy="116.62509557747383" r="1.78" fill="#9d7fea" fill-opacity="0.55"/><circle cx="139.51311278631127" cy="119.38989318393658" r="1.73" fill="#9d7fea" fill-opacity="0.59"/><circle cx="146.07304348585313" cy="119.13182269042102" r="2.02" fill="#9d7fea" fill-opacity="0.61"/><circle cx="158.43531906908373" cy="117.84125003145779" r="1.76" fill="#9d7fea" fill-opacity="0.64"/><circle cx="168.02313443961285" cy="118.15118176300152" r="2.52" fill="#9d7fea" fill-opacity="0.66"/><circle cx="174.84603087046276" cy="118.78998873814932" r="2.28" fill="#9d7fea" fill-opacity="0.68"/><circle cx="181.85709939152116" cy="118.9044618058959" r="2.57" fill="#9d7fea" fill-opacity="0.69"/><circle cx="186.87737818255908" cy="118.10332486272019" r="2.17" fill="#9d7fea" fill-opacity="0.71"/><circle cx="196.2511987516272" cy="117.94891455055946" r="2.2" fill="#9d7fea" fill-opacity="0.73"/><circle cx="200.56379967331736" cy="117.20331211739315" r="2.8" fill="#9d7fea" fill-opacity="0.74"/><circle cx="209.2066115937982" cy="118.07113965180932" r="2.64" fill="#9d7fea" fill-opacity="0.76"/><circle cx="216.68408092573162" cy="119.17449233564713" r="2.8" fill="#9d7fea" fill-opacity="0.78"/><circle cx="229.69489288370028" cy="118.34911937687912" r="2.8" fill="#9d7fea" fill-opacity="0.81"/><circle cx="237.863314977721" cy="117.85033826868629" r="2.8" fill="#9d7fea" fill-opacity="0.83"/><circle cx="245.43926302080305" cy="117.46526365656868" r="2.8" fill="#9d7fea" fill-opacity="0.85"/><circle cx="88.7358427732585" cy="126.50139173521325" r="1.44" fill="#9d7fea" fill-opacity="0.46"/><circle cx="97.3337465072694" cy="126.28423942925252" r="1.49" fill="#9d7fea" fill-opacity="0.48"/><circle cx="104.42960878914839" cy="126.4493921529145" r="1.68" fill="#9d7fea" fill-opacity="0.5"/><circle cx="117.86012894712552" cy="125.18078752244028" r="1.61" fill="#9d7fea" fill-opacity="0.53"/><circle cx="139.7748628095313" cy="124.0291004574567" r="1.84" fill="#9d7fea" fill-opacity="0.59"/><circle cx="147.4478962380914" cy="125.36335653321035" r="1.78" fill="#9d7fea" fill-opacity="0.61"/><circle cx="160.25351561012783" cy="123.91333936671653" r="2.34" fill="#9d7fea" fill-opacity="0.64"/><circle cx="168.31697700795334" cy="125.85812675982109" r="2.28" fill="#9d7fea" fill-opacity="0.66"/><circle cx="172.58789923909347" cy="123.73942027673674" r="2.41" fill="#9d7fea" fill-opacity="0.67"/><circle cx="187.45599036278296" cy="124.59088706582162" r="2.55" fill="#9d7fea" fill-opacity="0.71"/><circle cx="196.22279963404762" cy="125.81761210892293" r="2.72" fill="#9d7fea" fill-opacity="0.73"/><circle cx="201.10930629130516" cy="125.82633988843673" r="2.68" fill="#9d7fea" fill-opacity="0.74"/><circle cx="208.9865959540324" cy="124.83214029924991" r="2.8" fill="#9d7fea" fill-opacity="0.76"/><circle cx="215.0172132356819" cy="126.15042034317509" r="2.3" fill="#9d7fea" fill-opacity="0.78"/><circle cx="223.9274863742618" cy="126.21642823389331" r="2.74" fill="#9d7fea" fill-opacity="0.8"/><circle cx="229.26552409011612" cy="124.0209325701093" r="2.8" fill="#9d7fea" fill-opacity="0.81"/><circle cx="237.4910718470396" cy="125.50537077866403" r="2.8" fill="#9d7fea" fill-opacity="0.83"/><circle cx="243.84294715134328" cy="124.70314003519769" r="2.8" fill="#9d7fea" fill-opacity="0.85"/><circle cx="251.57515738183088" cy="125.90308148696124" r="2.8" fill="#9d7fea" fill-opacity="0.87"/><circle cx="89.58859411688313" cy="133.1865865479813" r="1.48" fill="#9d7fea" fill-opacity="0.46"/><circle cx="103.25182171913345" cy="132.88464272248873" r="1.5" fill="#9d7fea" fill-opacity="0.5"/><circle cx="117.24891644774375" cy="131.05624282824866" r="1.83" fill="#9d7fea" fill-opacity="0.53"/><circle cx="123.99221432058276" cy="133.10984461758247" r="1.81" fill="#9d7fea" fill-opacity="0.55"/><circle cx="131.21587743258294" cy="132.10146602890185" r="1.89" fill="#9d7fea" fill-opacity="0.57"/><circle cx="140.38711918859082" cy="130.57719151647916" r="1.8" fill="#9d7fea" fill-opacity="0.59"/><circle cx="145.72812908440295" cy="133.5554508125604" r="2.14" fill="#9d7fea" fill-opacity="0.6"/><circle cx="153.50244601607142" cy="132.87792891738275" r="1.84" fill="#9d7fea" fill-opacity="0.62"/><circle cx="166.8248198896904" cy="131.57750809475047" r="2.15" fill="#9d7fea" fill-opacity="0.66"/><circle cx="172.84179789362224" cy="131.59820775345278" r="2.27" fill="#9d7fea" fill-opacity="0.67"/><circle cx="179.4877115535958" cy="133.0094217474959" r="1.96" fill="#9d7fea" fill-opacity="0.69"/><circle cx="188.40042903425427" cy="132.54599156543216" r="2.08" fill="#9d7fea" fill-opacity="0.71"/><circle cx="193.46625586040207" cy="132.71697695702085" r="2.06" fill="#9d7fea" fill-opacity="0.72"/><circle cx="202.19187398806736" cy="130.6680748721032" r="2.75" fill="#9d7fea" fill-opacity="0.75"/><circle cx="208.12090260599098" cy="131.70027963939748" r="2.43" fill="#9d7fea" fill-opacity="0.76"/><circle cx="216.38634491949915" cy="130.57950737860102" r="2.47" fill="#9d7fea" fill-opacity="0.78"/><circle cx="222.7837872601244" cy="133.58127287471234" r="2.49" fill="#9d7fea" fill-opacity="0.8"/><circle cx="230.9537337537616" cy="131.6731203020306" r="2.66" fill="#9d7fea" fill-opacity="0.82"/><circle cx="235.95612159720994" cy="133.55611774273223" r="2.64" fill="#9d7fea" fill-opacity="0.83"/><circle cx="244.96766388085248" cy="130.73600055066507" r="2.63" fill="#9d7fea" fill-opacity="0.85"/><circle cx="249.51043169724153" cy="133.54735270134555" r="2.8" fill="#9d7fea" fill-opacity="0.86"/><circle cx="98.06285330981491" cy="139.11740535229467" r="1.29" fill="#9d7fea" fill-opacity="0.49"/><circle cx="124.6591624086824" cy="137.97742336285214" r="1.85" fill="#9d7fea" fill-opacity="0.55"/><circle cx="131.612982407791" cy="140.58213220875118" r="1.68" fill="#9d7fea" fill-opacity="0.57"/><circle cx="137.64038596868156" cy="139.69337843629197" r="1.71" fill="#9d7fea" fill-opacity="0.58"/><circle cx="144.42765832967316" cy="138.31639784055244" r="2.03" fill="#9d7fea" fill-opacity="0.6"/><circle cx="153.54015710108985" cy="139.63090711252784" r="2.27" fill="#9d7fea" fill-opacity="0.62"/><circle cx="159.91110611081172" cy="140.36640252975403" r="2.22" fill="#9d7fea" fill-opacity="0.64"/><circle cx="168.18978110309018" cy="140.5404852197025" r="2.5" fill="#9d7fea" fill-opacity="0.66"/><circle cx="173.71967744369317" cy="138.40942857563397" r="2.15" fill="#9d7fea" fill-opacity="0.67"/><circle cx="182.26389217665485" cy="138.44616323218546" r="2.03" fill="#9d7fea" fill-opacity="0.7"/><circle cx="188.70346969477797" cy="140.38409354903757" r="2.13" fill="#9d7fea" fill-opacity="0.71"/><circle cx="195.84062416399232" cy="140.1154220855751" r="2.47" fill="#9d7fea" fill-opacity="0.73"/><circle cx="201.59659173235394" cy="139.11329984841242" r="2.8" fill="#9d7fea" fill-opacity="0.74"/><circle cx="208.46778864675068" cy="140.48143234411916" r="2.6" fill="#9d7fea" fill-opacity="0.76"/><circle cx="217.0990550854831" cy="138.16508306746886" r="2.8" fill="#9d7fea" fill-opacity="0.78"/><circle cx="224.0696648564504" cy="140.15414525602873" r="2.8" fill="#9d7fea" fill-opacity="0.8"/><circle cx="230.89832619767418" cy="138.18538672713777" r="2.8" fill="#9d7fea" fill-opacity="0.82"/><circle cx="236.96183976541258" cy="139.31554481953796" r="2.45" fill="#9d7fea" fill-opacity="0.83"/><circle cx="243.27624107657513" cy="140.20896599791635" r="2.8" fill="#9d7fea" fill-opacity="0.85"/><circle cx="250.35344773613082" cy="138.18230558304958" r="2.8" fill="#9d7fea" fill-opacity="0.87"/><circle cx="257.5719329696416" cy="139.4896772854354" r="2.8" fill="#9d7fea" fill-opacity="0.88"/><circle cx="96.08245677392608" cy="147.15755440071015" r="1.41" fill="#9d7fea" fill-opacity="0.48"/><circle cx="104.5744852118622" cy="146.8152302619813" r="1.41" fill="#9d7fea" fill-opacity="0.5"/><circle cx="111.86379008978648" cy="147.29094734993876" r="1.72" fill="#9d7fea" fill-opacity="0.52"/><circle cx="117.55664837367729" cy="145.8334486672755" r="1.54" fill="#9d7fea" fill-opacity="0.53"/><circle cx="131.6823769999288" cy="147.22151799223957" r="1.53" fill="#9d7fea" fill-opacity="0.57"/><circle cx="139.98726047754587" cy="144.9844701139715" r="2.11" fill="#9d7fea" fill-opacity="0.59"/><circle cx="152.19439848267297" cy="144.76782512367762" r="1.83" fill="#9d7fea" fill-opacity="0.62"/><circle cx="158.9139895016718" cy="146.6818553983914" r="2.23" fill="#9d7fea" fill-opacity="0.64"/><circle cx="167.1025893481289" cy="147.24660253204925" r="1.85" fill="#9d7fea" fill-opacity="0.66"/><circle cx="175.07464761179992" cy="144.42152609225124" r="2.32" fill="#9d7fea" fill-opacity="0.68"/><circle cx="181.4076728246557" cy="145.16082981473946" r="2.23" fill="#9d7fea" fill-opacity="0.69"/><circle cx="188.24035396295756" cy="144.58785037888345" r="2.68" fill="#9d7fea" fill-opacity="0.71"/><circle cx="195.36859784610385" cy="146.985155430667" r="2.53" fill="#9d7fea" fill-opacity="0.73"/><circle cx="203.06340573393916" cy="144.99096802083957" r="2.8" fill="#9d7fea" fill-opacity="0.75"/><circle cx="209.7672571821608" cy="147.3140362944265" r="2.8" fill="#9d7fea" fill-opacity="0.76"/><circle cx="216.4383254839116" cy="145.12376245168284" r="2.8" fill="#9d7fea" fill-opacity="0.78"/><circle cx="222.14218290823771" cy="145.59883900204346" r="2.8" fill="#9d7fea" fill-opacity="0.8"/><circle cx="228.6401736005329" cy="144.79722869781773" r="2.8" fill="#9d7fea" fill-opacity="0.81"/><circle cx="242.8877876638338" cy="147.2446491343394" r="2.8" fill="#9d7fea" fill-opacity="0.85"/><circle cx="249.9748237362158" cy="146.96831148376273" r="2.8" fill="#9d7fea" fill-opacity="0.86"/><circle cx="258.8653030178482" cy="146.05872785562823" r="2.8" fill="#9d7fea" fill-opacity="0.88"/><circle cx="264.1831555326177" cy="147.5058864080275" r="2.8" fill="#9d7fea" fill-opacity="0.88"/><circle cx="103.21238081553935" cy="153.24967723811184" r="1.41" fill="#9d7fea" fill-opacity="0.5"/><circle cx="110.43435235566675" cy="152.49573373159424" r="1.73" fill="#9d7fea" fill-opacity="0.52"/><circle cx="124.48811808049135" cy="152.84659013112724" r="1.91" fill="#9d7fea" fill-opacity="0.55"/><circle cx="133.00739680280518" cy="152.09508304808185" r="1.69" fill="#9d7fea" fill-opacity="0.57"/><circle cx="154.49668153103218" cy="152.70851133663948" r="2.06" fill="#9d7fea" fill-opacity="0.63"/><circle cx="158.7071210665576" cy="152.4685012005859" r="1.95" fill="#9d7fea" fill-opacity="0.64"/><circle cx="167.76573676821087" cy="152.30421925858116" r="2.34" fill="#9d7fea" fill-opacity="0.66"/><circle cx="174.24523380580493" cy="152.87560112022572" r="1.96" fill="#9d7fea" fill-opacity="0.68"/><circle cx="181.03714921088456" cy="152.50323906700766" r="2.03" fill="#9d7fea" fill-opacity="0.69"/><circle cx="186.67851315059863" cy="152.47065658336138" r="2.58" fill="#9d7fea" fill-opacity="0.71"/><circle cx="202.52947630023826" cy="151.77173886737" r="2.68" fill="#9d7fea" fill-opacity="0.75"/><circle cx="210.2886687195325" cy="152.8020382463448" r="2.78" fill="#9d7fea" fill-opacity="0.77"/><circle cx="214.73934355623354" cy="154.12343548469985" r="2.8" fill="#9d7fea" fill-opacity="0.78"/><circle cx="221.61941375615368" cy="152.29985906778774" r="2.61" fill="#9d7fea" fill-opacity="0.79"/><circle cx="229.62565171393297" cy="154.37566311817508" r="2.8" fill="#9d7fea" fill-opacity="0.81"/><circle cx="236.7472421192303" cy="152.7176929093397" r="2.8" fill="#9d7fea" fill-opacity="0.83"/><circle cx="243.9564454384486" cy="152.05606243692546" r="2.52" fill="#9d7fea" fill-opacity="0.85"/><circle cx="252.22795923161635" cy="153.12988584000777" r="2.8" fill="#9d7fea" fill-opacity="0.87"/><circle cx="256.8245707509731" cy="152.93858681570927" r="2.8" fill="#9d7fea" fill-opacity="0.88"/><circle cx="89.69303807311415" cy="159.53691686713137" r="1.33" fill="#9d7fea" fill-opacity="0.46"/><circle cx="95.66329541586582" cy="159.32092825184634" r="1.48" fill="#9d7fea" fill-opacity="0.48"/><circle cx="104.41899223629765" cy="158.55901418133573" r="1.31" fill="#9d7fea" fill-opacity="0.5"/><circle cx="110.06616818920256" cy="159.21072355592221" r="1.48" fill="#9d7fea" fill-opacity="0.52"/><circle cx="117.39750878986604" cy="158.71645315309917" r="1.76" fill="#9d7fea" fill-opacity="0.53"/><circle cx="130.90743398301652" cy="158.75191757779214" r="1.96" fill="#9d7fea" fill-opacity="0.57"/><circle cx="138.90327334189666" cy="160.23386364675915" r="1.97" fill="#9d7fea" fill-opacity="0.59"/><circle cx="145.12125941217025" cy="159.5169426927423" r="1.84" fill="#9d7fea" fill-opacity="0.6"/><circle cx="166.8128128721286" cy="160.1830066546287" r="1.83" fill="#9d7fea" fill-opacity="0.66"/><circle cx="174.70127141611326" cy="158.66100906455168" r="2.58" fill="#9d7fea" fill-opacity="0.68"/><circle cx="181.4330209431856" cy="158.47380296934568" r="2.31" fill="#9d7fea" fill-opacity="0.69"/><circle cx="189.27240160091023" cy="159.78695781455156" r="2.62" fill="#9d7fea" fill-opacity="0.71"/><circle cx="195.74878090696663" cy="161.5463134048945" r="2.72" fill="#9d7fea" fill-opacity="0.73"/><circle cx="210.02436109969094" cy="160.39671692074143" r="2.8" fill="#9d7fea" fill-opacity="0.77"/><circle cx="214.78989225721867" cy="159.27182943156703" r="2.75" fill="#9d7fea" fill-opacity="0.78"/><circle cx="229.2022866869267" cy="158.6353874565356" r="2.75" fill="#9d7fea" fill-opacity="0.81"/><circle cx="238.33037038457832" cy="159.0965138706906" r="2.8" fill="#9d7fea" fill-opacity="0.84"/><circle cx="245.44945421314722" cy="160.5655788838363" r="2.6" fill="#9d7fea" fill-opacity="0.85"/><circle cx="250.25356874164285" cy="158.79587114540243" r="2.8" fill="#9d7fea" fill-opacity="0.87"/><circle cx="256.96982655909324" cy="158.500249794039" r="2.8" fill="#9d7fea" fill-opacity="0.88"/><circle cx="89.95568239123467" cy="165.76394933130743" r="1.33" fill="#9d7fea" fill-opacity="0.46"/><circle cx="98.34661378023004" cy="168.02142909507327" r="1.53" fill="#9d7fea" fill-opacity="0.49"/><circle cx="103.673503353407" cy="167.99813093159753" r="1.61" fill="#9d7fea" fill-opacity="0.5"/><circle cx="112.19627109073676" cy="167.54534537970738" r="1.35" fill="#9d7fea" fill-opacity="0.52"/><circle cx="119.38597459157914" cy="166.9583330111284" r="1.52" fill="#9d7fea" fill-opacity="0.54"/><circle cx="124.42054978286906" cy="167.17995098959125" r="1.45" fill="#9d7fea" fill-opacity="0.55"/><circle cx="131.492190761826" cy="165.91264049756546" r="1.56" fill="#9d7fea" fill-opacity="0.57"/><circle cx="139.70499842644588" cy="167.8415815279948" r="2.01" fill="#9d7fea" fill-opacity="0.59"/><circle cx="146.7291683772723" cy="167.37959834807316" r="2.16" fill="#9d7fea" fill-opacity="0.61"/><circle cx="153.01889342767882" cy="168.48949866950284" r="1.96" fill="#9d7fea" fill-opacity="0.62"/><circle cx="159.33449413102838" cy="167.39326473120656" r="1.96" fill="#9d7fea" fill-opacity="0.64"/><circle cx="166.91307810344736" cy="166.7370884050224" r="1.91" fill="#9d7fea" fill-opacity="0.66"/><circle cx="172.63145109755405" cy="167.01491241603296" r="1.89" fill="#9d7fea" fill-opacity="0.67"/><circle cx="180.82536859918443" cy="165.81303528212868" r="2.54" fill="#9d7fea" fill-opacity="0.69"/><circle cx="186.46018584015113" cy="166.062855318741" r="2.65" fill="#9d7fea" fill-opacity="0.71"/><circle cx="195.9058211573719" cy="167.04828088581675" r="2.75" fill="#9d7fea" fill-opacity="0.73"/><circle cx="202.1272923329319" cy="167.9090750196464" r="2.24" fill="#9d7fea" fill-opacity="0.75"/><circle cx="210.3460255751324" cy="166.08203276275938" r="2.8" fill="#9d7fea" fill-opacity="0.77"/><circle cx="222.80533963248558" cy="165.65190529869045" r="2.74" fill="#9d7fea" fill-opacity="0.8"/><circle cx="228.62644662795051" cy="166.55136240852696" r="2.63" fill="#9d7fea" fill-opacity="0.81"/><circle cx="238.4452679707684" cy="166.3517724667994" r="2.48" fill="#9d7fea" fill-opacity="0.84"/><circle cx="250.83950006102756" cy="168.3566535898887" r="2.8" fill="#9d7fea" fill-opacity="0.87"/><circle cx="82.62867190500677" cy="174.7105942353852" r="1.11" fill="#9d7fea" fill-opacity="0.45"/><circle cx="96.6583199826737" cy="174.60311613098105" r="1.4" fill="#9d7fea" fill-opacity="0.48"/><circle cx="104.79429606387734" cy="174.37087451083843" r="1.47" fill="#9d7fea" fill-opacity="0.5"/><circle cx="110.09491992186894" cy="174.1329327985755" r="1.39" fill="#9d7fea" fill-opacity="0.52"/><circle cx="118.29002123728806" cy="173.86559155430896" r="1.63" fill="#9d7fea" fill-opacity="0.54"/><circle cx="124.5717937173266" cy="173.5679152867439" r="1.61" fill="#9d7fea" fill-opacity="0.55"/><circle cx="131.9181706642539" cy="172.41346618419118" r="1.95" fill="#9d7fea" fill-opacity="0.57"/><circle cx="139.012580967307" cy="174.5872560180297" r="1.97" fill="#9d7fea" fill-opacity="0.59"/><circle cx="153.408368942597" cy="172.4715927788401" r="2.28" fill="#9d7fea" fill-opacity="0.62"/><circle cx="160.7239731531355" cy="175.23347642658422" r="2.29" fill="#9d7fea" fill-opacity="0.64"/><circle cx="181.87183653237503" cy="173.2505243702584" r="2.7" fill="#9d7fea" fill-opacity="0.69"/><circle cx="186.53361911555726" cy="174.24386262807738" r="2.36" fill="#9d7fea" fill-opacity="0.71"/><circle cx="193.47514173387668" cy="173.99706148653067" r="2.49" fill="#9d7fea" fill-opacity="0.72"/><circle cx="207.96377976673207" cy="173.47263856263862" r="2.51" fill="#9d7fea" fill-opacity="0.76"/><circle cx="215.22750412306215" cy="175.39416626109616" r="2.39" fill="#9d7fea" fill-opacity="0.78"/><circle cx="223.789560862963" cy="173.42054631398568" r="2.8" fill="#9d7fea" fill-opacity="0.8"/><circle cx="230.01286805503088" cy="174.42955006701303" r="2.8" fill="#9d7fea" fill-opacity="0.82"/><circle cx="238.51030957609655" cy="174.40165941233988" r="2.8" fill="#9d7fea" fill-opacity="0.84"/><circle cx="242.4177725848322" cy="174.81459419938514" r="2.72" fill="#9d7fea" fill-opacity="0.85"/><circle cx="83.27485514229971" cy="181.4835200191711" r="1.17" fill="#9d7fea" fill-opacity="0.45"/><circle cx="104.84098157872072" cy="180.84385421995393" r="1.47" fill="#9d7fea" fill-opacity="0.5"/><circle cx="112.1635514630407" cy="179.69756406095914" r="1.75" fill="#9d7fea" fill-opacity="0.52"/><circle cx="117.7866551967647" cy="182.52038108045775" r="1.72" fill="#9d7fea" fill-opacity="0.53"/><circle cx="125.10944006823993" cy="181.68979732073836" r="1.86" fill="#9d7fea" fill-opacity="0.55"/><circle cx="137.40323870867365" cy="181.65926710380788" r="1.7" fill="#9d7fea" fill-opacity="0.58"/><circle cx="147.00138779014415" cy="181.72810744792758" r="2.0" fill="#9d7fea" fill-opacity="0.61"/><circle cx="152.3743019271324" cy="181.5053472029751" r="2.03" fill="#9d7fea" fill-opacity="0.62"/><circle cx="161.0030553664744" cy="181.0302995763289" r="2.33" fill="#9d7fea" fill-opacity="0.64"/><circle cx="166.87786825507212" cy="180.65333668199216" r="2.15" fill="#9d7fea" fill-opacity="0.66"/><circle cx="172.67396360908526" cy="182.0580555713835" r="1.93" fill="#9d7fea" fill-opacity="0.67"/><circle cx="179.8403432888279" cy="180.51584215680438" r="2.41" fill="#9d7fea" fill-opacity="0.69"/><circle cx="187.4796803740305" cy="180.095824054253" r="2.41" fill="#9d7fea" fill-opacity="0.71"/><circle cx="195.04347272032075" cy="180.6209987750555" r="2.8" fill="#9d7fea" fill-opacity="0.73"/><circle cx="201.5459865625342" cy="181.65002947587342" r="2.74" fill="#9d7fea" fill-opacity="0.74"/><circle cx="208.6677541999008" cy="181.96422881428705" r="2.8" fill="#9d7fea" fill-opacity="0.76"/><circle cx="216.78509074467917" cy="179.56376433665315" r="2.8" fill="#9d7fea" fill-opacity="0.78"/><circle cx="221.90600964772597" cy="181.86522700137508" r="2.8" fill="#9d7fea" fill-opacity="0.79"/><circle cx="229.72030361023255" cy="179.98015195359267" r="2.38" fill="#9d7fea" fill-opacity="0.81"/><circle cx="237.00882371703707" cy="182.53454696686055" r="2.8" fill="#9d7fea" fill-opacity="0.83"/><circle cx="242.81952918842808" cy="181.85960775669335" r="2.79" fill="#9d7fea" fill-opacity="0.85"/><circle cx="82.89805538634992" cy="187.08387300303593" r="1.39" fill="#9d7fea" fill-opacity="0.45"/><circle cx="98.42943521678241" cy="189.18950361168484" r="1.5" fill="#9d7fea" fill-opacity="0.49"/><circle cx="102.65065203654633" cy="187.41433448174533" r="1.5" fill="#9d7fea" fill-opacity="0.5"/><circle cx="110.07528222341088" cy="189.22724899202245" r="1.64" fill="#9d7fea" fill-opacity="0.52"/><circle cx="130.51256055078133" cy="188.90187879729956" r="1.71" fill="#9d7fea" fill-opacity="0.57"/><circle cx="138.89853908877265" cy="188.22807569703465" r="1.77" fill="#9d7fea" fill-opacity="0.59"/><circle cx="145.63692165942402" cy="187.23469074834034" r="1.97" fill="#9d7fea" fill-opacity="0.6"/><circle cx="151.75823723414382" cy="186.7144772541303" r="1.99" fill="#9d7fea" fill-opacity="0.62"/><circle cx="161.14705107736563" cy="188.70063194809762" r="1.94" fill="#9d7fea" fill-opacity="0.64"/><circle cx="167.3539517250019" cy="187.8988826744638" r="2.0" fill="#9d7fea" fill-opacity="0.66"/><circle cx="175.55841816951425" cy="189.43525605374842" r="2.18" fill="#9d7fea" fill-opacity="0.68"/><circle cx="180.02115623060914" cy="187.8308852414263" r="2.44" fill="#9d7fea" fill-opacity="0.69"/><circle cx="186.44196878515967" cy="187.11811606287725" r="2.42" fill="#9d7fea" fill-opacity="0.71"/><circle cx="193.6210719451434" cy="188.22893709996228" r="2.8" fill="#9d7fea" fill-opacity="0.72"/><circle cx="214.95882384389446" cy="187.7403796153644" r="2.8" fill="#9d7fea" fill-opacity="0.78"/><circle cx="222.28679172089466" cy="187.28550964706594" r="2.74" fill="#9d7fea" fill-opacity="0.8"/><circle cx="230.30801757264933" cy="189.1240708881598" r="2.8" fill="#9d7fea" fill-opacity="0.82"/><circle cx="236.5631689949522" cy="188.6121774934292" r="2.8" fill="#9d7fea" fill-opacity="0.83"/><circle cx="70.01057351739283" cy="193.4385184905878" r="0.98" fill="#9d7fea" fill-opacity="0.42"/><circle cx="75.84912602192898" cy="195.66705433497512" r="1.12" fill="#9d7fea" fill-opacity="0.43"/><circle cx="104.71696861963619" cy="194.33908596078723" r="1.51" fill="#9d7fea" fill-opacity="0.5"/><circle cx="111.69938737848827" cy="195.75275875494222" r="1.64" fill="#9d7fea" fill-opacity="0.52"/><circle cx="116.52237863918117" cy="196.11967598334851" r="1.81" fill="#9d7fea" fill-opacity="0.53"/><circle cx="124.51308360005878" cy="193.91868076535985" r="1.54" fill="#9d7fea" fill-opacity="0.55"/><circle cx="133.20605112242328" cy="194.45828448025136" r="1.57" fill="#9d7fea" fill-opacity="0.57"/><circle cx="146.7287705838444" cy="194.65825489072142" r="1.75" fill="#9d7fea" fill-opacity="0.61"/><circle cx="152.17600447658464" cy="196.20726111990578" r="1.76" fill="#9d7fea" fill-opacity="0.62"/><circle cx="166.3047359338008" cy="195.08261337186818" r="2.48" fill="#9d7fea" fill-opacity="0.66"/><circle cx="172.65297235698725" cy="194.99609722133613" r="2.45" fill="#9d7fea" fill-opacity="0.67"/><circle cx="195.13413047406246" cy="196.33639189249348" r="2.23" fill="#9d7fea" fill-opacity="0.73"/><circle cx="203.5886382054642" cy="194.89449890509576" r="2.8" fill="#9d7fea" fill-opacity="0.75"/><circle cx="209.1039939947456" cy="196.55040881055885" r="2.8" fill="#9d7fea" fill-opacity="0.76"/><circle cx="215.40247877441428" cy="193.52370097744816" r="2.8" fill="#9d7fea" fill-opacity="0.78"/><circle cx="224.32250499329933" cy="195.73204436895645" r="2.74" fill="#9d7fea" fill-opacity="0.8"/><circle cx="229.3769370259479" cy="194.608965890841" r="2.51" fill="#9d7fea" fill-opacity="0.81"/><circle cx="61.41483472990503" cy="201.90521666307507" r="1.1" fill="#9d7fea" fill-opacity="0.39"/><circle cx="67.77976284942379" cy="200.45030219257913" r="0.96" fill="#9d7fea" fill-opacity="0.41"/><circle cx="89.99754753353231" cy="201.65899836427405" r="1.45" fill="#9d7fea" fill-opacity="0.46"/><circle cx="117.4985624091264" cy="203.25242178265205" r="1.46" fill="#9d7fea" fill-opacity="0.53"/><circle cx="132.52050830720242" cy="201.5769602439589" r="1.76" fill="#9d7fea" fill-opacity="0.57"/><circle cx="137.5897539315742" cy="203.5746428023278" r="1.9" fill="#9d7fea" fill-opacity="0.58"/><circle cx="144.8438863196783" cy="202.4707403218256" r="2.05" fill="#9d7fea" fill-opacity="0.6"/><circle cx="151.59090391002746" cy="202.532980073072" r="2.2" fill="#9d7fea" fill-opacity="0.62"/><circle cx="160.51322694456533" cy="201.02432963682625" r="2.22" fill="#9d7fea" fill-opacity="0.64"/><circle cx="166.1861045323467" cy="203.29363345777628" r="1.86" fill="#9d7fea" fill-opacity="0.66"/><circle cx="173.91192933194898" cy="203.302891228684" r="2.07" fill="#9d7fea" fill-opacity="0.67"/><circle cx="180.67685873837837" cy="203.25246362322045" r="2.29" fill="#9d7fea" fill-opacity="0.69"/><circle cx="187.9584791634846" cy="201.2816021529106" r="2.72" fill="#9d7fea" fill-opacity="0.71"/><circle cx="194.48126991624187" cy="203.0323710867884" r="2.64" fill="#9d7fea" fill-opacity="0.73"/><circle cx="202.73345371310137" cy="202.43062862858403" r="2.8" fill="#9d7fea" fill-opacity="0.75"/><circle cx="207.55157633530266" cy="201.0683708173777" r="2.78" fill="#9d7fea" fill-opacity="0.76"/><circle cx="215.86708632579317" cy="203.52714083258573" r="2.33" fill="#9d7fea" fill-opacity="0.78"/><circle cx="221.43663328837826" cy="201.38567967833134" r="2.64" fill="#9d7fea" fill-opacity="0.79"/><circle cx="230.0605409455639" cy="201.33689008393597" r="2.8" fill="#9d7fea" fill-opacity="0.82"/><circle cx="62.947564054557354" cy="209.8834778335108" r="1.0" fill="#9d7fea" fill-opacity="0.4"/><circle cx="75.83650723876691" cy="207.7522283021955" r="1.22" fill="#9d7fea" fill-opacity="0.43"/><circle cx="81.53649214011662" cy="209.65405912845108" r="1.09" fill="#9d7fea" fill-opacity="0.44"/><circle cx="91.54972469098651" cy="210.56968049669942" r="1.29" fill="#9d7fea" fill-opacity="0.47"/><circle cx="95.41233688399204" cy="209.8493891344952" r="1.27" fill="#9d7fea" fill-opacity="0.48"/><circle cx="102.61640276541833" cy="208.69068183682631" r="1.39" fill="#9d7fea" fill-opacity="0.5"/><circle cx="118.25386160602476" cy="207.86889910470873" r="1.62" fill="#9d7fea" fill-opacity="0.54"/><circle cx="126.2737199281874" cy="208.78663574406232" r="1.69" fill="#9d7fea" fill-opacity="0.56"/><circle cx="131.81216277449656" cy="209.90573679538744" r="1.52" fill="#9d7fea" fill-opacity="0.57"/><circle cx="154.31811433110119" cy="208.38170342345794" r="1.89" fill="#9d7fea" fill-opacity="0.63"/><circle cx="158.444939202844" cy="210.08423287644942" r="1.77" fill="#9d7fea" fill-opacity="0.64"/><circle cx="167.38104345102025" cy="209.9100743004203" r="2.31" fill="#9d7fea" fill-opacity="0.66"/><circle cx="175.5775737343964" cy="208.2785618901904" r="2.63" fill="#9d7fea" fill-opacity="0.68"/><circle cx="188.5606356091534" cy="209.106745024935" r="2.43" fill="#9d7fea" fill-opacity="0.71"/><circle cx="195.6660296814319" cy="207.73567472349552" r="2.52" fill="#9d7fea" fill-opacity="0.73"/><circle cx="202.60512613060968" cy="209.83460666553665" r="2.8" fill="#9d7fea" fill-opacity="0.75"/><circle cx="216.72099143098984" cy="210.28206179427235" r="2.56" fill="#9d7fea" fill-opacity="0.78"/><circle cx="223.5640347120922" cy="210.44198210274425" r="2.39" fill="#9d7fea" fill-opacity="0.8"/><circle cx="53.41161005736906" cy="215.83639302727596" r="0.87" fill="#9d7fea" fill-opacity="0.37"/><circle cx="63.34853645343879" cy="214.48935613772503" r="1.13" fill="#9d7fea" fill-opacity="0.4"/><circle cx="68.48152819379388" cy="214.4857532823754" r="0.98" fill="#9d7fea" fill-opacity="0.41"/><circle cx="83.68657009434646" cy="216.04995708485325" r="1.16" fill="#9d7fea" fill-opacity="0.45"/><circle cx="91.4905524673615" cy="217.20496516486443" r="1.45" fill="#9d7fea" fill-opacity="0.47"/><circle cx="98.40381651235498" cy="215.1458436008864" r="1.38" fill="#9d7fea" fill-opacity="0.49"/><circle cx="103.05579784286033" cy="216.68283200269545" r="1.36" fill="#9d7fea" fill-opacity="0.5"/><circle cx="111.07381676193924" cy="215.6906611795042" r="1.67" fill="#9d7fea" fill-opacity="0.52"/><circle cx="118.85017843518828" cy="215.30210811759582" r="1.51" fill="#9d7fea" fill-opacity="0.54"/><circle cx="145.33437085064847" cy="216.55855498963214" r="1.71" fill="#9d7fea" fill-opacity="0.6"/><circle cx="153.7108169606256" cy="217.17730113839588" r="2.34" fill="#9d7fea" fill-opacity="0.62"/><circle cx="159.21284749735332" cy="215.00848586085823" r="2.06" fill="#9d7fea" fill-opacity="0.64"/><circle cx="167.59323048316517" cy="216.10122269510012" r="1.84" fill="#9d7fea" fill-opacity="0.66"/><circle cx="172.61361025172454" cy="214.67894421765143" r="1.93" fill="#9d7fea" fill-opacity="0.67"/><circle cx="180.590633267811" cy="214.82175342834833" r="2.45" fill="#9d7fea" fill-opacity="0.69"/><circle cx="188.962589800039" cy="216.77094522809512" r="2.17" fill="#9d7fea" fill-opacity="0.71"/><circle cx="194.83281304119166" cy="217.49882763907044" r="2.75" fill="#9d7fea" fill-opacity="0.73"/><circle cx="202.14923929638275" cy="215.403877929247" r="2.18" fill="#9d7fea" fill-opacity="0.75"/><circle cx="209.45722491938872" cy="216.83795073022748" r="2.25" fill="#9d7fea" fill-opacity="0.76"/><circle cx="216.36541525662972" cy="215.39986128928336" r="2.3" fill="#9d7fea" fill-opacity="0.78"/><circle cx="61.13408224379147" cy="223.2836173694765" r="0.94" fill="#9d7fea" fill-opacity="0.39"/><circle cx="103.03252037148799" cy="223.31427667111208" r="1.6" fill="#9d7fea" fill-opacity="0.5"/><circle cx="110.1922925504453" cy="223.5665497157397" r="1.61" fill="#9d7fea" fill-opacity="0.52"/><circle cx="116.60780380350103" cy="223.8474786737198" r="1.73" fill="#9d7fea" fill-opacity="0.53"/><circle cx="126.23070932889513" cy="221.81201180228146" r="1.96" fill="#9d7fea" fill-opacity="0.56"/><circle cx="131.12973689355667" cy="223.49742788649672" r="1.53" fill="#9d7fea" fill-opacity="0.57"/><circle cx="139.51690549130873" cy="222.38647571569788" r="1.68" fill="#9d7fea" fill-opacity="0.59"/><circle cx="145.67879532113548" cy="224.2593606543195" r="1.88" fill="#9d7fea" fill-opacity="0.6"/><circle cx="159.54159699437298" cy="222.72648267622156" r="2.17" fill="#9d7fea" fill-opacity="0.64"/><circle cx="167.38188103534253" cy="221.45548326014716" r="2.53" fill="#9d7fea" fill-opacity="0.66"/><circle cx="175.16538137207186" cy="223.46904646806217" r="2.14" fill="#9d7fea" fill-opacity="0.68"/><circle cx="179.50245537465193" cy="222.15690497430583" r="2.23" fill="#9d7fea" fill-opacity="0.69"/><circle cx="195.15839541982902" cy="221.6566883864751" r="2.55" fill="#9d7fea" fill-opacity="0.73"/><circle cx="207.918820473612" cy="222.3328664238944" r="2.54" fill="#9d7fea" fill-opacity="0.76"/><circle cx="214.56988140828227" cy="224.412075415481" r="2.8" fill="#9d7fea" fill-opacity="0.78"/><circle cx="55.36844815105128" cy="229.2271236022228" r="0.85" fill="#9d7fea" fill-opacity="0.38"/><circle cx="76.31460843052864" cy="231.16657015228242" r="1.08" fill="#9d7fea" fill-opacity="0.43"/><circle cx="84.25992466930018" cy="231.5188010576058" r="1.4" fill="#9d7fea" fill-opacity="0.45"/><circle cx="105.25367797385115" cy="230.74352650655683" r="1.55" fill="#9d7fea" fill-opacity="0.5"/><circle cx="117.4920089398907" cy="229.510617813612" r="1.59" fill="#9d7fea" fill-opacity="0.53"/><circle cx="151.63246150824673" cy="229.21782748813857" r="2.26" fill="#9d7fea" fill-opacity="0.62"/><circle cx="160.13262537109551" cy="228.73619691950785" r="2.4" fill="#9d7fea" fill-opacity="0.64"/><circle cx="167.5348445663415" cy="229.03592915824711" r="2.26" fill="#9d7fea" fill-opacity="0.66"/><circle cx="174.4640844249921" cy="229.42226587858553" r="2.21" fill="#9d7fea" fill-opacity="0.68"/><circle cx="181.76334827147326" cy="228.8632650188363" r="2.67" fill="#9d7fea" fill-opacity="0.69"/><circle cx="187.75384468092346" cy="229.23078310000534" r="2.26" fill="#9d7fea" fill-opacity="0.71"/><circle cx="195.38420875617354" cy="230.06654285008423" r="2.46" fill="#9d7fea" fill-opacity="0.73"/><circle cx="201.13816149408862" cy="229.1057382939792" r="2.72" fill="#9d7fea" fill-opacity="0.74"/><circle cx="41.27109571712891" cy="236.9896070495801" r="0.72" fill="#9d7fea" fill-opacity="0.34"/><circle cx="49.310239590844084" cy="237.50813846241329" r="0.84" fill="#9d7fea" fill-opacity="0.36"/><circle cx="55.693263868997676" cy="236.06527285298293" r="0.88" fill="#9d7fea" fill-opacity="0.38"/><circle cx="61.98250147996736" cy="236.3415313567524" r="0.95" fill="#9d7fea" fill-opacity="0.39"/><circle cx="69.29596470669992" cy="235.65578437379142" r="1.2" fill="#9d7fea" fill-opacity="0.41"/><circle cx="81.83377821204502" cy="236.71336084663685" r="1.1" fill="#9d7fea" fill-opacity="0.44"/><circle cx="88.70006128507688" cy="236.58662921337938" r="1.21" fill="#9d7fea" fill-opacity="0.46"/><circle cx="96.84662158389659" cy="237.9785512054447" r="1.36" fill="#9d7fea" fill-opacity="0.48"/><circle cx="104.71386688477132" cy="237.62407128520894" r="1.63" fill="#9d7fea" fill-opacity="0.5"/><circle cx="111.81064378254604" cy="237.71985548617567" r="1.42" fill="#9d7fea" fill-opacity="0.52"/><circle cx="118.75821257731778" cy="237.7928500110925" r="1.68" fill="#9d7fea" fill-opacity="0.54"/><circle cx="131.8918897797858" cy="238.325829100393" r="1.88" fill="#9d7fea" fill-opacity="0.57"/><circle cx="147.26248355615482" cy="237.4910680785498" r="2.02" fill="#9d7fea" fill-opacity="0.61"/><circle cx="151.80163478483695" cy="237.10797304252833" r="1.82" fill="#9d7fea" fill-opacity="0.62"/><circle cx="160.8202819662481" cy="235.80848430665623" r="2.07" fill="#9d7fea" fill-opacity="0.64"/><circle cx="165.57666246439436" cy="236.58944696252405" r="2.18" fill="#9d7fea" fill-opacity="0.65"/><circle cx="175.27243616793373" cy="237.92355889398297" r="2.56" fill="#9d7fea" fill-opacity="0.68"/><circle cx="187.71839619728394" cy="236.50014256307054" r="2.72" fill="#9d7fea" fill-opacity="0.71"/><circle cx="202.8144968505495" cy="237.0004328600966" r="2.64" fill="#9d7fea" fill-opacity="0.75"/><circle cx="39.495395429250266" cy="244.53834075900232" r="0.81" fill="#9d7fea" fill-opacity="0.34"/><circle cx="46.46802255681596" cy="245.24772720892474" r="0.8" fill="#9d7fea" fill-opacity="0.36"/><circle cx="61.79828921735306" cy="243.5297360327847" r="0.93" fill="#9d7fea" fill-opacity="0.39"/><circle cx="97.32158569233913" cy="243.3444396946034" r="1.26" fill="#9d7fea" fill-opacity="0.48"/><circle cx="102.76173426734584" cy="244.04975873928387" r="1.64" fill="#9d7fea" fill-opacity="0.5"/><circle cx="111.6345447725516" cy="245.32358173305374" r="1.68" fill="#9d7fea" fill-opacity="0.52"/><circle cx="117.71438205023604" cy="243.99190274608662" r="1.41" fill="#9d7fea" fill-opacity="0.53"/><circle cx="125.66441466438914" cy="243.96572952969873" r="1.7" fill="#9d7fea" fill-opacity="0.55"/><circle cx="139.34686477251847" cy="245.2337298492519" r="1.81" fill="#9d7fea" fill-opacity="0.59"/><circle cx="146.74060360253256" cy="243.06155786475213" r="1.66" fill="#9d7fea" fill-opacity="0.61"/><circle cx="154.2905337717557" cy="242.52192345865663" r="1.98" fill="#9d7fea" fill-opacity="0.63"/><circle cx="160.12587187334873" cy="243.37348631086175" r="2.41" fill="#9d7fea" fill-opacity="0.64"/><circle cx="174.88334666137195" cy="242.59429725898562" r="2.05" fill="#9d7fea" fill-opacity="0.68"/><circle cx="181.75754736787187" cy="243.05873376519864" r="2.57" fill="#9d7fea" fill-opacity="0.69"/><circle cx="186.76860275085437" cy="245.5010333085564" r="2.58" fill="#9d7fea" fill-opacity="0.71"/><circle cx="195.724479468039" cy="243.35820589732845" r="2.34" fill="#9d7fea" fill-opacity="0.73"/><circle cx="33.57768294523423" cy="250.8373093717215" r="0.71" fill="#9d7fea" fill-opacity="0.32"/><circle cx="42.15363821047855" cy="250.8985492476414" r="0.77" fill="#9d7fea" fill-opacity="0.35"/><circle cx="70.58820891184416" cy="251.2798388302948" r="1.19" fill="#9d7fea" fill-opacity="0.42"/><circle cx="84.1545631205222" cy="251.57051122837183" r="1.28" fill="#9d7fea" fill-opacity="0.45"/><circle cx="88.617033508805" cy="250.94197710388818" r="1.46" fill="#9d7fea" fill-opacity="0.46"/><circle cx="98.13976533202022" cy="249.5407767653356" r="1.41" fill="#9d7fea" fill-opacity="0.49"/><circle cx="104.46076277315973" cy="249.69520140672057" r="1.57" fill="#9d7fea" fill-opacity="0.5"/><circle cx="111.19411714805413" cy="252.05820824577705" r="1.49" fill="#9d7fea" fill-opacity="0.52"/><circle cx="117.32877689002234" cy="249.83487402771684" r="1.66" fill="#9d7fea" fill-opacity="0.53"/><circle cx="125.4990851567723" cy="251.93030819395793" r="1.7" fill="#9d7fea" fill-opacity="0.55"/><circle cx="132.0373095666768" cy="250.21528114871234" r="1.93" fill="#9d7fea" fill-opacity="0.57"/><circle cx="138.28431401513944" cy="250.1535636014253" r="1.72" fill="#9d7fea" fill-opacity="0.59"/><circle cx="145.79906977386983" cy="250.12039686550455" r="1.72" fill="#9d7fea" fill-opacity="0.6"/><circle cx="152.40021573159908" cy="249.7026907775839" r="2.09" fill="#9d7fea" fill-opacity="0.62"/><circle cx="159.27202644485135" cy="252.2395408181551" r="2.39" fill="#9d7fea" fill-opacity="0.64"/><circle cx="166.26291899763692" cy="251.82855845659265" r="1.9" fill="#9d7fea" fill-opacity="0.66"/><circle cx="173.6848870876171" cy="252.25674255881114" r="1.92" fill="#9d7fea" fill-opacity="0.67"/><circle cx="179.67192226571558" cy="250.99475177410804" r="2.54" fill="#9d7fea" fill-opacity="0.69"/><circle cx="189.4837420320416" cy="250.32061787828266" r="2.65" fill="#9d7fea" fill-opacity="0.71"/><circle cx="194.82787255602537" cy="252.34833686903863" r="2.33" fill="#9d7fea" fill-opacity="0.73"/><circle cx="34.33230296051053" cy="257.73454124702465" r="0.67" fill="#9d7fea" fill-opacity="0.33"/><circle cx="42.236443589223846" cy="257.65741625218584" r="0.84" fill="#9d7fea" fill-opacity="0.35"/><circle cx="60.94489216596653" cy="258.96953020014564" r="1.09" fill="#9d7fea" fill-opacity="0.39"/><circle cx="75.20094603456678" cy="258.95153809596434" r="1.12" fill="#9d7fea" fill-opacity="0.43"/><circle cx="95.81634292972703" cy="259.5182754888895" r="1.52" fill="#9d7fea" fill-opacity="0.48"/><circle cx="131.05475178506913" cy="258.53486872847265" r="1.71" fill="#9d7fea" fill-opacity="0.57"/><circle cx="139.82724923608075" cy="257.0342230150329" r="2.0" fill="#9d7fea" fill-opacity="0.59"/><circle cx="145.35519506868712" cy="256.4962966952732" r="1.82" fill="#9d7fea" fill-opacity="0.6"/><circle cx="151.57472020925792" cy="256.4686633532662" r="1.69" fill="#9d7fea" fill-opacity="0.62"/><circle cx="161.56144455181078" cy="256.4621226404112" r="2.16" fill="#9d7fea" fill-opacity="0.64"/><circle cx="168.22819396278004" cy="257.04334175551077" r="2.53" fill="#9d7fea" fill-opacity="0.66"/><circle cx="174.59225903582464" cy="256.7783374524005" r="1.98" fill="#9d7fea" fill-opacity="0.68"/><circle cx="180.80112164606672" cy="258.6042819196887" r="2.6" fill="#9d7fea" fill-opacity="0.69"/><circle cx="186.52099279909973" cy="256.84361321754534" r="2.78" fill="#9d7fea" fill-opacity="0.71"/><circle cx="28.021192889025436" cy="264.5084006930775" r="0.66" fill="#9d7fea" fill-opacity="0.31"/><circle cx="53.75674839537606" cy="264.8846265548723" r="0.95" fill="#9d7fea" fill-opacity="0.37"/><circle cx="63.146687402339" cy="264.8528852931826" r="0.98" fill="#9d7fea" fill-opacity="0.4"/><circle cx="70.57895051469484" cy="264.6123802752814" r="1.18" fill="#9d7fea" fill-opacity="0.42"/><circle cx="82.75480321763196" cy="266.1770193152879" r="1.29" fill="#9d7fea" fill-opacity="0.45"/><circle cx="89.61792098915758" cy="264.4017499585047" r="1.19" fill="#9d7fea" fill-opacity="0.46"/><circle cx="95.72274831270674" cy="265.15642551541197" r="1.2" fill="#9d7fea" fill-opacity="0.48"/><circle cx="102.87207192251837" cy="265.252329386963" r="1.58" fill="#9d7fea" fill-opacity="0.5"/><circle cx="117.43457634909862" cy="264.2763939551133" r="1.49" fill="#9d7fea" fill-opacity="0.53"/><circle cx="123.44427758122305" cy="266.10523858898443" r="1.64" fill="#9d7fea" fill-opacity="0.55"/><circle cx="139.91266367991082" cy="266.224006964428" r="2.1" fill="#9d7fea" fill-opacity="0.59"/><circle cx="147.36573763787445" cy="265.1268950570879" r="1.73" fill="#9d7fea" fill-opacity="0.61"/><circle cx="154.08522541778146" cy="264.66926278630956" r="1.85" fill="#9d7fea" fill-opacity="0.63"/><circle cx="159.654492951247" cy="263.47735306340405" r="1.83" fill="#9d7fea" fill-opacity="0.64"/><circle cx="166.924193848038" cy="266.52083727827124" r="2.06" fill="#9d7fea" fill-opacity="0.66"/><circle cx="172.7094064713398" cy="263.7125165090105" r="1.88" fill="#9d7fea" fill-opacity="0.67"/><circle cx="182.59089290240678" cy="264.2587372655192" r="2.12" fill="#9d7fea" fill-opacity="0.7"/><circle cx="188.70716547964446" cy="265.7148690609581" r="2.63" fill="#9d7fea" fill-opacity="0.71"/><circle cx="21.439313666235453" cy="271.37304130069185" r="0.57" fill="#9d7fea" fill-opacity="0.29"/><circle cx="32.796956578743576" cy="271.2531306083806" r="0.71" fill="#9d7fea" fill-opacity="0.32"/><circle cx="39.4076030293602" cy="273.3373943419485" r="0.71" fill="#9d7fea" fill-opacity="0.34"/><circle cx="48.35824615711721" cy="271.5692474152526" r="0.93" fill="#9d7fea" fill-opacity="0.36"/><circle cx="53.818514398468245" cy="271.39642003423126" r="0.96" fill="#9d7fea" fill-opacity="0.37"/><circle cx="74.87117969892009" cy="272.3003443430455" r="1.11" fill="#9d7fea" fill-opacity="0.43"/><circle cx="82.30693885236613" cy="272.3508492145456" r="1.25" fill="#9d7fea" fill-opacity="0.45"/><circle cx="98.41212914720721" cy="272.8725505004329" r="1.25" fill="#9d7fea" fill-opacity="0.49"/><circle cx="103.40125742982222" cy="272.35479259816344" r="1.35" fill="#9d7fea" fill-opacity="0.5"/><circle cx="111.83488930044446" cy="270.54097745619174" r="1.45" fill="#9d7fea" fill-opacity="0.52"/><circle cx="138.5045713111798" cy="272.5094915957465" r="2.01" fill="#9d7fea" fill-opacity="0.59"/><circle cx="144.57538655638794" cy="271.59987161926955" r="1.8" fill="#9d7fea" fill-opacity="0.6"/><circle cx="154.50581286378096" cy="272.23933829255145" r="1.88" fill="#9d7fea" fill-opacity="0.63"/><circle cx="159.53443392631027" cy="273.19465642106877" r="2.31" fill="#9d7fea" fill-opacity="0.64"/><circle cx="167.2376316628609" cy="270.5727196573171" r="1.93" fill="#9d7fea" fill-opacity="0.66"/><circle cx="173.09766031910934" cy="271.6720842189831" r="2.31" fill="#9d7fea" fill-opacity="0.67"/><circle cx="18.7392778940325" cy="277.8686704866699" r="0.54" fill="#9d7fea" fill-opacity="0.29"/><circle cx="33.061648302830974" cy="277.9556853386312" r="0.69" fill="#9d7fea" fill-opacity="0.32"/><circle cx="49.45674578430582" cy="278.61371144352825" r="0.94" fill="#9d7fea" fill-opacity="0.36"/><circle cx="54.92907536755333" cy="279.92149956572683" r="0.85" fill="#9d7fea" fill-opacity="0.38"/><circle cx="62.40564651570648" cy="279.93042826758835" r="0.91" fill="#9d7fea" fill-opacity="0.4"/><circle cx="69.10566066259955" cy="278.7806103103913" r="0.98" fill="#9d7fea" fill-opacity="0.41"/><circle cx="75.45982985571365" cy="278.8016574848723" r="1.09" fill="#9d7fea" fill-opacity="0.43"/><circle cx="82.02150831072143" cy="279.6883805347743" r="1.18" fill="#9d7fea" fill-opacity="0.45"/><circle cx="98.51326325714858" cy="279.5182358339626" r="1.58" fill="#9d7fea" fill-opacity="0.49"/><circle cx="103.97997090109318" cy="279.6262769484534" r="1.67" fill="#9d7fea" fill-opacity="0.5"/><circle cx="109.55596535953502" cy="279.0547706111588" r="1.5" fill="#9d7fea" fill-opacity="0.51"/><circle cx="116.53394043845366" cy="278.6448814508764" r="1.83" fill="#9d7fea" fill-opacity="0.53"/><circle cx="130.98560427308445" cy="278.71781874623497" r="1.77" fill="#9d7fea" fill-opacity="0.57"/><circle cx="138.32264957503088" cy="280.4162348242999" r="1.67" fill="#9d7fea" fill-opacity="0.59"/><circle cx="146.87587925072938" cy="277.8865039736348" r="1.68" fill="#9d7fea" fill-opacity="0.61"/><circle cx="153.1849126621471" cy="279.8191418528006" r="1.93" fill="#9d7fea" fill-opacity="0.62"/><circle cx="160.72406748510204" cy="279.768054788108" r="2.06" fill="#9d7fea" fill-opacity="0.64"/><circle cx="168.40731576559438" cy="279.0570470469051" r="1.92" fill="#9d7fea" fill-opacity="0.66"/><circle cx="174.7740033170597" cy="278.83928911657114" r="2.59" fill="#9d7fea" fill-opacity="0.68"/><circle cx="180.40257832473955" cy="278.65436888519025" r="2.62" fill="#9d7fea" fill-opacity="0.69"/><circle cx="25.977301785252717" cy="285.7404749610644" r="0.62" fill="#9d7fea" fill-opacity="0.3"/><circle cx="48.48281704107572" cy="285.7476365582773" r="0.84" fill="#9d7fea" fill-opacity="0.36"/><circle cx="56.265828510507845" cy="285.34555296204934" r="0.92" fill="#9d7fea" fill-opacity="0.38"/><circle cx="68.21383176254885" cy="285.86373260404434" r="1.12" fill="#9d7fea" fill-opacity="0.41"/><circle cx="81.74037343399847" cy="285.8105412667461" r="1.34" fill="#9d7fea" fill-opacity="0.44"/><circle cx="104.56366096039253" cy="285.70655360043475" r="1.48" fill="#9d7fea" fill-opacity="0.5"/><circle cx="119.30470373958956" cy="285.5543450732233" r="1.82" fill="#9d7fea" fill-opacity="0.54"/><circle cx="125.46019404057506" cy="285.7867813351555" r="1.57" fill="#9d7fea" fill-opacity="0.55"/><circle cx="153.3270064875792" cy="284.45802409130704" r="2.34" fill="#9d7fea" fill-opacity="0.62"/><circle cx="174.00172029621166" cy="284.5555814426862" r="2.04" fill="#9d7fea" fill-opacity="0.68"/></svg>