<svg xmlns="http://www.w3.org/2000/svg" width="640" height="640" viewBox="0 0 640 640"><circle cx="233.8" cy="314.9" r="1.66" fill="#e5484d" fill-opacity="0.08"/><circle cx="387.1" cy="367.5" r="2.55" fill="#e5484d" fill-opacity="0.14"/><circle cx="335.3" cy="586.8" r="1.20" fill="#e5484d" fill-opacity="0.11"/><circle cx="347.1" cy="472.4" r="2.77" fill="#e5484d" fill-opacity="0.15"/><circle cx="232.6" cy="508.3" r="2.45" fill="#e5484d" fill-opacity="0.12"/><circle cx="248.6" cy="446.9" r="2.74" fill="#e5484d" fill-opacity="0.21"/><circle cx="245.6" cy="420.3" r="1.36" fill="#e5484d" fill-opacity="0.08"/><circle cx="349.1" cy="376.3" r="2.09" fill="#e5484d" fill-opacity="0.16"/><circle cx="152.6" cy="422.5" r="1.41" fill="#e5484d" fill-opacity="0.19"/><circle cx="227.2" cy="447.6" r="1.54" fill="#e5484d" fill-opacity="0.12"/><circle cx="319.2" cy="574.1" r="1.69" fill="#e5484d" fill-opacity="0.24"/><circle cx="203.7" cy="380.6" r="2.57" fill="#e5484d" fill-opacity="0.19"/><circle cx="224.1" cy="372.6" r="2.44" fill="#e5484d" fill-opacity="0.13"/><circle cx="260.0" cy="337.5" r="1.34" fill="#e5484d" fill-opacity="0.18"/><circle cx="168.7" cy="356.6" r="1.79" fill="#e5484d" fill-opacity="0.16"/><circle cx="317.9" cy="491.6" r="2.12" fill="#e5484d" fill-opacity="0.23"/><circle cx="244.7" cy="380.6" r="2.65" fill="#e5484d" fill-opacity="0.23"/><circle cx="234.2" cy="351.1" r="2.38" fill="#e5484d" fill-opacity="0.25"/><circle cx="77.8" cy="447.5" r="2.61" fill="#e5484d" fill-opacity="0.18"/><circle cx="275.0" cy="300.4" r="1.26" fill="#e5484d" fill-opacity="0.25"/><circle cx="149.8" cy="362.9" r="1.61" fill="#e5484d" fill-opacity="0.23"/><circle cx="340.3" cy="268.0" r="1.48" fill="#e5484d" fill-opacity="0.21"/><circle cx="264.4" cy="433.1" r="2.09" fill="#e5484d" fill-opacity="0.23"/><circle cx="345.6" cy="277.4" r="2.67" fill="#e5484d" fill-opacity="0.11"/><circle cx="284.2" cy="450.3" r="1.91" fill="#e5484d" fill-opacity="0.08"/><circle cx="213.5" cy="403.8" r="2.12" fill="#e5484d" fill-opacity="0.09"/><circle cx="150.0" cy="178.6" r="2.77" fill="#e5484d" fill-opacity="0.19"/><circle cx="410.2" cy="295.5" r="1.42" fill="#e5484d" fill-opacity="0.08"/><circle cx="264.8" cy="623.7" r="2.32" fill="#e5484d" fill-opacity="0.25"/><circle cx="272.4" cy="527.5" r="1.97" fill="#e5484d" fill-opacity="0.21"/><circle cx="237.9" cy="490.5" r="2.38" fill="#e5484d" fill-opacity="0.24"/><circle cx="438.6" cy="340.1" r="2.47" fill="#e5484d" fill-opacity="0.24"/><circle cx="184.2" cy="236.3" r="2.64" fill="#e5484d" fill-opacity="0.24"/><circle cx="217.6" cy="159.1" r="2.58" fill="#e5484d" fill-opacity="0.18"/><circle cx="360.7" cy="267.3" r="2.13" fill="#e5484d" fill-opacity="0.19"/><circle cx="226.6" cy="506.6" r="2.79" fill="#e5484d" fill-opacity="0.24"/><circle cx="385.6" cy="337.6" r="2.38" fill="#e5484d" fill-opacity="0.18"/><circle cx="235.2" cy="129.1" r="1.33" fill="#e5484d" fill-opacity="0.21"/><circle cx="266.8" cy="517.8" r="1.97" fill="#e5484d" fill-opacity="0.11"/><circle cx="398.3" cy="308.2" r="2.18" fill="#e5484d" fill-opacity="0.24"/><circle cx="280.4" cy="351.2" r="1.68" fill="#e5484d" fill-opacity="0.2"/><circle cx="239.8" cy="373.3" r="2.65" fill="#e5484d" fill-opacity="0.2"/><circle cx="230.7" cy="105.0" r="1.72" fill="#e5484d" fill-opacity="0.2"/><circle cx="200.1" cy="392.1" r="2.49" fill="#e5484d" fill-opacity="0.24"/><circle cx="354.4" cy="443.5" r="2.13" fill="#e5484d" fill-opacity="0.13"/><circle cx="210.1" cy="446.0" r="2.54" fill="#e5484d" fill-opacity="0.23"/><circle cx="516.0" cy="284.1" r="1.64" fill="#e5484d" fill-opacity="0.1"/><circle cx="274.0" cy="256.5" r="1.54" fill="#e5484d" fill-opacity="0.15"/><circle cx="373.5" cy="251.8" r="1.70" fill="#e5484d" fill-opacity="0.23"/><circle cx="302.4" cy="488.5" r="1.32" fill="#e5484d" fill-opacity="0.08"/><circle cx="313.0" cy="378.1" r="2.33" fill="#e5484d" fill-opacity="0.18"/><circle cx="143.5" cy="268.5" r="1.23" fill="#e5484d" fill-opacity="0.1"/><circle cx="289.1" cy="325.4" r="2.53" fill="#e5484d" fill-opacity="0.12"/><circle cx="271.5" cy="376.2" r="2.21" fill="#e5484d" fill-opacity="0.15"/><circle cx="395.8" cy="230.2" r="2.49" fill="#e5484d" fill-opacity="0.25"/><circle cx="351.7" cy="320.4" r="1.96" fill="#e5484d" fill-opacity="0.1"/><circle cx="259.5" cy="369.1" r="2.34" fill="#e5484d" fill-opacity="0.1"/><circle cx="106.2" cy="423.3" r="2.32" fill="#e5484d" fill-opacity="0.17"/><circle cx="61.1" cy="165.8" r="1.83" fill="#e5484d" fill-opacity="0.22"/><circle cx="193.1" cy="311.0" r="2.69" fill="#e5484d" fill-opacity="0.21"/><circle cx="197.7" cy="437.8" r="2.20" fill="#e5484d" fill-opacity="0.24"/><circle cx="26.8" cy="398.5" r="2.61" fill="#e5484d" fill-opacity="0.22"/><circle cx="267.0" cy="315.9" r="2.24" fill="#e5484d" fill-opacity="0.11"/><circle cx="178.7" cy="115.7" r="2.23" fill="#e5484d" fill-opacity="0.21"/><circle cx="128.2" cy="572.1" r="2.77" fill="#e5484d" fill-opacity="0.26"/><circle cx="231.1" cy="263.2" r="1.33" fill="#e5484d" fill-opacity="0.15"/><circle cx="5.8" cy="218.4" r="1.98" fill="#e5484d" fill-opacity="0.08"/><circle cx="174.3" cy="293.0" r="2.48" fill="#e5484d" fill-opacity="0.1"/><circle cx="9.4" cy="466.7" r="1.42" fill="#e5484d" fill-opacity="0.1"/><circle cx="274.7" cy="208.6" r="2.71" fill="#e5484d" fill-opacity="0.16"/><circle cx="194.3" cy="323.9" r="1.55" fill="#e5484d" fill-opacity="0.17"/><circle cx="56.9" cy="487.1" r="2.22" fill="#e5484d" fill-opacity="0.17"/><circle cx="256.4" cy="230.2" r="1.70" fill="#e5484d" fill-opacity="0.14"/><circle cx="330.0" cy="167.0" r="1.53" fill="#e5484d" fill-opacity="0.23"/><circle cx="276.8" cy="336.1" r="2.12" fill="#e5484d" fill-opacity="0.11"/><circle cx="43.8" cy="262.2" r="2.17" fill="#e5484d" fill-opacity="0.08"/><circle cx="275.2" cy="336.9" r="1.84" fill="#e5484d" fill-opacity="0.22"/><circle cx="58.0" cy="244.5" r="2.31" fill="#e5484d" fill-opacity="0.08"/><circle cx="58.2" cy="268.5" r="2.73" fill="#e5484d" fill-opacity="0.25"/><circle cx="98.3" cy="446.5" r="1.40" fill="#e5484d" fill-opacity="0.15"/><circle cx="301.8" cy="135.1" r="1.96" fill="#e5484d" fill-opacity="0.13"/><circle cx="155.8" cy="484.6" r="2.68" fill="#e5484d" fill-opacity="0.09"/><circle cx="160.7" cy="304.3" r="1.51" fill="#e5484d" fill-opacity="0.11"/><circle cx="143.3" cy="226.2" r="1.77" fill="#e5484d" fill-opacity="0.19"/><circle cx="243.9" cy="474.9" r="1.40" fill="#e5484d" fill-opacity="0.17"/><circle cx="127.1" cy="399.7" r="2.05" fill="#e5484d" fill-opacity="0.15"/><circle cx="52.2" cy="384.5" r="2.05" fill="#e5484d" fill-opacity="0.1"/><circle cx="144.0" cy="488.3" r="2.22" fill="#e5484d" fill-opacity="0.17"/><circle cx="268.3" cy="229.0" r="2.57" fill="#e5484d" fill-opacity="0.11"/><circle cx="200.5" cy="122.0" r="2.64" fill="#e5484d" fill-opacity="0.13"/><circle cx="202.0" cy="300.3" r="1.58" fill="#e5484d" fill-opacity="0.21"/><circle cx="131.9" cy="375.4" r="2.53" fill="#e5484d" fill-opacity="0.15"/><circle cx="179.5" cy="274.8" r="1.84" fill="#e5484d" fill-opacity="0.2"/><circle cx="213.5" cy="354.9" r="2.29" fill="#e5484d" fill-opacity="0.24"/><circle cx="201.3" cy="330.4" r="2.01" fill="#e5484d" fill-opacity="0.21"/><circle cx="152.0" cy="370.0" r="1.37" fill="#e5484d" fill-opacity="0.08"/><circle cx="49.1" cy="249.5" r="2.11" fill="#e5484d" fill-opacity="0.1"/><circle cx="155.8" cy="403.0" r="2.54" fill="#e5484d" fill-opacity="0.26"/><circle cx="196.3" cy="316.7" r="1.30" fill="#e5484d" fill-opacity="0.25"/><circle cx="276.7" cy="451.9" r="1.72" fill="#e5484d" fill-opacity="0.16"/><circle cx="213.7" cy="487.2" r="2.16" fill="#e5484d" fill-opacity="0.07"/><circle cx="168.7" cy="599.1" r="1.49" fill="#e5484d" fill-opacity="0.16"/><circle cx="109.9" cy="550.7" r="1.51" fill="#e5484d" fill-opacity="0.1"/><circle cx="118.1" cy="487.0" r="2.63" fill="#e5484d" fill-opacity="0.22"/><circle cx="166.1" cy="603.6" r="2.21" fill="#e5484d" fill-opacity="0.15"/><circle cx="205.5" cy="525.0" r="2.77" fill="#e5484d" fill-opacity="0.22"/><circle cx="103.6" cy="348.4" r="2.39" fill="#e5484d" fill-opacity="0.22"/><circle cx="58.6" cy="548.5" r="2.63" fill="#e5484d" fill-opacity="0.24"/><circle cx="167.5" cy="584.6" r="2.42" fill="#e5484d" fill-opacity="0.15"/><circle cx="107.4" cy="510.5" r="1.75" fill="#e5484d" fill-opacity="0.16"/><circle cx="200.3" cy="549.0" r="1.57" fill="#e5484d" fill-opacity="0.25"/><circle cx="151.2" cy="533.7" r="2.26" fill="#e5484d" fill-opacity="0.18"/><circle cx="205.0" cy="494.2" r="2.80" fill="#e5484d" fill-opacity="0.19"/><circle cx="160.0" cy="585.6" r="2.77" fill="#e5484d" fill-opacity="0.07"/><circle cx="235.7" cy="548.0" r="1.61" fill="#e5484d" fill-opacity="0.15"/><circle cx="30.3" cy="478.1" r="1.80" fill="#e5484d" fill-opacity="0.09"/><circle cx="92.6" cy="350.6" r="2.08" fill="#e5484d" fill-opacity="0.17"/><circle cx="84.5" cy="511.4" r="2.16" fill="#e5484d" fill-opacity="0.21"/><circle cx="30.0" cy="431.0" r="1.47" fill="#e5484d" fill-opacity="0.16"/><circle cx="128.6" cy="499.6" r="2.71" fill="#e5484d" fill-opacity="0.15"/><circle cx="244.0" cy="493.3" r="1.78" fill="#e5484d" fill-opacity="0.12"/><circle cx="180.7" cy="549.5" r="1.65" fill="#e5484d" fill-opacity="0.21"/><circle cx="103.6" cy="476.8" r="1.59" fill="#e5484d" fill-opacity="0.08"/><circle cx="272.4" cy="391.7" r="2.40" fill="#e5484d" fill-opacity="0.08"/><circle cx="208.8" cy="450.3" r="2.76" fill="#e5484d" fill-opacity="0.12"/><circle cx="352.5" cy="494.7" r="2.36" fill="#e5484d" fill-opacity="0.16"/><circle cx="142.6" cy="503.7" r="2.20" fill="#e5484d" fill-opacity="0.16"/><circle cx="87.7" cy="468.1" r="2.04" fill="#e5484d" fill-opacity="0.09"/><circle cx="247.8" cy="446.0" r="1.93" fill="#e5484d" fill-opacity="0.12"/><circle cx="199.0" cy="514.1" r="2.44" fill="#e5484d" fill-opacity="0.17"/><circle cx="109.4" cy="532.9" r="1.38" fill="#e5484d" fill-opacity="0.24"/><circle cx="71.3" cy="575.0" r="1.77" fill="#e5484d" fill-opacity="0.12"/><circle cx="158.6" cy="558.5" r="2.15" fill="#e5484d" fill-opacity="0.19"/><circle cx="99.8" cy="528.1" r="1.60" fill="#e5484d" fill-opacity="0.26"/><circle cx="61.5" cy="483.8" r="1.63" fill="#e5484d" fill-opacity="0.15"/><circle cx="136.1" cy="505.6" r="2.07" fill="#e5484d" fill-opacity="0.08"/><circle cx="245.9" cy="506.8" r="1.80" fill="#e5484d" fill-opacity="0.16"/><circle cx="71.5" cy="432.7" r="2.39" fill="#e5484d" fill-opacity="0.23"/><circle cx="49.3" cy="475.7" r="2.49" fill="#e5484d" fill-opacity="0.19"/><circle cx="92.6" cy="530.9" r="1.88" fill="#e5484d" fill-opacity="0.12"/><circle cx="63.9" cy="545.4" r="2.25" fill="#e5484d" fill-opacity="0.26"/><circle cx="157.4" cy="413.2" r="2.39" fill="#e5484d" fill-opacity="0.24"/><circle cx="428.4" cy="454.1" r="1.36" fill="#e5484d" fill-opacity="0.24"/><circle cx="360.0" cy="496.4" r="2.10" fill="#e5484d" fill-opacity="0.16"/><circle cx="424.3" cy="536.1" r="2.44" fill="#e5484d" fill-opacity="0.08"/><circle cx="333.2" cy="423.9" r="1.33" fill="#e5484d" fill-opacity="0.13"/><circle cx="436.0" cy="581.7" r="1.65" fill="#e5484d" fill-opacity="0.1"/><circle cx="417.9" cy="402.3" r="1.79" fill="#e5484d" fill-opacity="0.09"/><circle cx="435.1" cy="564.2" r="2.67" fill="#e5484d" fill-opacity="0.25"/><circle cx="344.3" cy="553.3" r="2.48" fill="#e5484d" fill-opacity="0.13"/><circle cx="390.2" cy="435.8" r="2.70" fill="#e5484d" fill-opacity="0.24"/><circle cx="364.0" cy="444.3" r="1.78" fill="#e5484d" fill-opacity="0.14"/><circle cx="419.5" cy="445.4" r="1.51" fill="#e5484d" fill-opacity="0.18"/><circle cx="392.3" cy="577.1" r="2.54" fill="#e5484d" fill-opacity="0.18"/><circle cx="306.7" cy="429.3" r="2.61" fill="#e5484d" fill-opacity="0.12"/><circle cx="311.2" cy="517.8" r="2.07" fill="#e5484d" fill-opacity="0.18"/><circle cx="308.5" cy="550.5" r="2.49" fill="#e5484d" fill-opacity="0.08"/><circle cx="499.2" cy="488.7" r="1.33" fill="#e5484d" fill-opacity="0.09"/><circle cx="446.2" cy="618.9" r="1.34" fill="#e5484d" fill-opacity="0.19"/><circle cx="295.2" cy="447.9" r="2.24" fill="#e5484d" fill-opacity="0.12"/><circle cx="329.0" cy="409.4" r="2.03" fill="#e5484d" fill-opacity="0.22"/><circle cx="416.4" cy="449.6" r="2.75" fill="#e5484d" fill-opacity="0.2"/><circle cx="459.6" cy="466.7" r="2.35" fill="#e5484d" fill-opacity="0.2"/><circle cx="345.6" cy="550.6" r="2.52" fill="#e5484d" fill-opacity="0.2"/><circle cx="354.1" cy="608.9" r="2.53" fill="#e5484d" fill-opacity="0.24"/><circle cx="312.5" cy="553.7" r="2.04" fill="#e5484d" fill-opacity="0.2"/><circle cx="389.2" cy="564.7" r="1.87" fill="#e5484d" fill-opacity="0.1"/><circle cx="402.4" cy="464.1" r="1.53" fill="#e5484d" fill-opacity="0.15"/><circle cx="368.9" cy="334.4" r="1.29" fill="#e5484d" fill-opacity="0.13"/><circle cx="299.5" cy="469.5" r="2.44" fill="#e5484d" fill-opacity="0.1"/><circle cx="315.4" cy="498.9" r="2.13" fill="#e5484d" fill-opacity="0.24"/><circle cx="356.0" cy="503.9" r="1.50" fill="#e5484d" fill-opacity="0.11"/><circle cx="341.2" cy="410.7" r="2.15" fill="#e5484d" fill-opacity="0.11"/><circle cx="350.0" cy="463.5" r="1.48" fill="#e5484d" fill-opacity="0.21"/><circle cx="388.1" cy="420.0" r="2.51" fill="#e5484d" fill-opacity="0.16"/><circle cx="346.6" cy="374.7" r="2.66" fill="#e5484d" fill-opacity="0.13"/><circle cx="547.1" cy="484.7" r="1.97" fill="#e5484d" fill-opacity="0.11"/><circle cx="231.0" cy="510.8" r="2.48" fill="#e5484d" fill-opacity="0.14"/><circle cx="462.3" cy="483.0" r="1.64" fill="#e5484d" fill-opacity="0.26"/><circle cx="424.9" cy="525.3" r="1.22" fill="#e5484d" fill-opacity="0.16"/><circle cx="430.6" cy="394.9" r="2.34" fill="#e5484d" fill-opacity="0.19"/><circle cx="356.0" cy="478.4" r="1.71" fill="#e5484d" fill-opacity="0.12"/><circle cx="357.7" cy="569.9" r="2.22" fill="#e5484d" fill-opacity="0.26"/><circle cx="365.8" cy="424.6" r="1.44" fill="#e5484d" fill-opacity="0.22"/><circle cx="275.0" cy="542.4" r="2.55" fill="#e5484d" fill-opacity="0.23"/><circle cx="336.2" cy="492.7" r="2.35" fill="#e5484d" fill-opacity="0.09"/><circle cx="450.1" cy="464.4" r="2.73" fill="#e5484d" fill-opacity="0.18"/><circle cx="370.0" cy="550.3" r="2.46" fill="#e5484d" fill-opacity="0.15"/><circle cx="368.9" cy="520.8" r="2.52" fill="#e5484d" fill-opacity="0.11"/><circle cx="464.5" cy="490.2" r="1.45" fill="#e5484d" fill-opacity="0.23"/><circle cx="387.5" cy="445.0" r="1.32" fill="#e5484d" fill-opacity="0.13"/><circle cx="471.9" cy="443.4" r="1.78" fill="#e5484d" fill-opacity="0.2"/><circle cx="325.0" cy="482.0" r="1.94" fill="#e5484d" fill-opacity="0.25"/><circle cx="374.1" cy="590.0" r="1.22" fill="#e5484d" fill-opacity="0.14"/><circle cx="413.9" cy="536.2" r="2.10" fill="#e5484d" fill-opacity="0.16"/><circle cx="197.1" cy="560.7" r="2.48" fill="#e5484d" fill-opacity="0.11"/><circle cx="436.2" cy="516.5" r="1.80" fill="#e5484d" fill-opacity="0.17"/><circle cx="382.7" cy="442.4" r="1.83" fill="#e5484d" fill-opacity="0.2"/><circle cx="372.7" cy="459.7" r="2.37" fill="#e5484d" fill-opacity="0.13"/><circle cx="324.1" cy="553.2" r="2.36" fill="#e5484d" fill-opacity="0.13"/><circle cx="504.8" cy="218.8" r="1.43" fill="#9d7fea" fill-opacity="0.09"/><circle cx="487.9" cy="102.3" r="1.49" fill="#9d7fea" fill-opacity="0.15"/><circle cx="579.1" cy="210.8" r="1.34" fill="#9d7fea" fill-opacity="0.11"/><circle cx="470.3" cy="269.0" r="1.85" fill="#9d7fea" fill-opacity="0.08"/><circle cx="564.8" cy="261.5" r="2.02" fill="#9d7fea" fill-opacity="0.19"/><circle cx="576.0" cy="138.6" r="1.82" fill="#9d7fea" fill-opacity="0.13"/><circle cx="454.3" cy="221.1" r="1.84" fill="#9d7fea" fill-opacity="0.2"/><circle cx="612.1" cy="334.4" r="2.26" fill="#9d7fea" fill-opacity="0.19"/><circle cx="532.1" cy="292.4" r="1.75" fill="#9d7fea" fill-opacity="0.19"/><circle cx="498.0" cy="311.1" r="2.01" fill="#9d7fea" fill-opacity="0.22"/><circle cx="577.7" cy="201.7" r="1.45" fill="#9d7fea" fill-opacity="0.22"/><circle cx="583.6" cy="256.9" r="1.76" fill="#9d7fea" fill-opacity="0.17"/><circle cx="484.3" cy="360.9" r="2.78" fill="#9d7fea" fill-opacity="0.17"/><circle cx="530.9" cy="96.9" r="1.52" fill="#9d7fea" fill-opacity="0.25"/><circle cx="458.8" cy="168.7" r="1.33" fill="#9d7fea" fill-opacity="0.12"/><circle cx="402.3" cy="94.1" r="1.73" fill="#9d7fea" fill-opacity="0.25"/><circle cx="374.1" cy="224.2" r="1.40" fill="#9d7fea" fill-opacity="0.25"/><circle cx="497.1" cy="412.1" r="2.07" fill="#9d7fea" fill-opacity="0.18"/><circle cx="429.7" cy="160.9" r="2.65" fill="#9d7fea" fill-opacity="0.26"/><circle cx="573.2" cy="196.5" r="1.40" fill="#9d7fea" fill-opacity="0.23"/><circle cx="329.5" cy="304.7" r="1.59" fill="#9d7fea" fill-opacity="0.18"/><circle cx="521.2" cy="216.7" r="2.08" fill="#9d7fea" fill-opacity="0.08"/><circle cx="510.4" cy="275.0" r="2.78" fill="#9d7fea" fill-opacity="0.25"/><circle cx="470.5" cy="155.2" r="2.27" fill="#9d7fea" fill-opacity="0.21"/><circle cx="351.3" cy="208.9" r="2.49" fill="#9d7fea" fill-opacity="0.07"/><circle cx="443.9" cy="308.4" r="1.43" fill="#9d7fea" fill-opacity="0.14"/><circle cx="440.9" cy="173.9" r="2.03" fill="#9d7fea" fill-opacity="0.12"/><circle cx="427.0" cy="150.3" r="2.23" fill="#9d7fea" fill-opacity="0.08"/><circle cx="474.4" cy="181.2" r="2.73" fill="#9d7fea" fill-opacity="0.18"/><circle cx="384.5" cy="168.1" r="2.20" fill="#9d7fea" fill-opacity="0.2"/><circle cx="558.8" cy="140.7" r="1.98" fill="#9d7fea" fill-opacity="0.26"/><circle cx="630.5" cy="205.1" r="1.85" fill="#9d7fea" fill-opacity="0.15"/><circle cx="363.8" cy="43.4" r="2.04" fill="#9d7fea" fill-opacity="0.17"/><circle cx="277.5" cy="141.2" r="1.71" fill="#9d7fea" fill-opacity="0.08"/><circle cx="550.2" cy="87.9" r="2.37" fill="#9d7fea" fill-opacity="0.18"/><circle cx="513.0" cy="180.2" r="2.15" fill="#9d7fea" fill-opacity="0.08"/><circle cx="490.5" cy="320.6" r="2.00" fill="#9d7fea" fill-opacity="0.15"/><circle cx="555.6" cy="352.3" r="2.04" fill="#9d7fea" fill-opacity="0.12"/><circle cx="397.6" cy="254.1" r="1.58" fill="#9d7fea" fill-opacity="0.08"/><circle cx="479.3" cy="62.6" r="1.87" fill="#9d7fea" fill-opacity="0.22"/><circle cx="411.7" cy="335.3" r="2.11" fill="#9d7fea" fill-opacity="0.24"/><circle cx="528.1" cy="380.5" r="1.40" fill="#9d7fea" fill-opacity="0.17"/><circle cx="473.1" cy="227.8" r="1.59" fill="#9d7fea" fill-opacity="0.13"/><circle cx="442.1" cy="232.7" r="2.63" fill="#9d7fea" fill-opacity="0.22"/><circle cx="385.9" cy="206.2" r="2.14" fill="#9d7fea" fill-opacity="0.08"/><circle cx="607.6" cy="391.4" r="1.69" fill="#9d7fea" fill-opacity="0.16"/><circle cx="414.0" cy="187.1" r="1.67" fill="#9d7fea" fill-opacity="0.25"/><circle cx="78.3" cy="156.5" r="2.54" fill="#9d7fea" fill-opacity="0.14"/><circle cx="53.5" cy="31.2" r="2.61" fill="#9d7fea" fill-opacity="0.26"/><circle cx="32.1" cy="140.9" r="2.36" fill="#9d7fea" fill-opacity="0.13"/><circle cx="128.1" cy="283.5" r="2.34" fill="#9d7fea" fill-opacity="0.1"/><circle cx="259.9" cy="45.4" r="1.91" fill="#9d7fea" fill-opacity="0.09"/><circle cx="111.2" cy="88.0" r="1.49" fill="#9d7fea" fill-opacity="0.11"/><circle cx="200.5" cy="23.0" r="1.80" fill="#9d7fea" fill-opacity="0.2"/><circle cx="113.0" cy="212.8" r="1.57" fill="#9d7fea" fill-opacity="0.13"/><circle cx="87.5" cy="244.0" r="1.64" fill="#9d7fea" fill-opacity="0.19"/><circle cx="62.7" cy="65.5" r="2.16" fill="#9d7fea" fill-opacity="0.12"/><circle cx="3.3" cy="162.9" r="2.41" fill="#9d7fea" fill-opacity="0.12"/><circle cx="49.8" cy="123.4" r="1.94" fill="#9d7fea" fill-opacity="0.21"/><circle cx="63.1" cy="30.1" r="2.09" fill="#9d7fea" fill-opacity="0.19"/><circle cx="151.3" cy="138.6" r="2.01" fill="#9d7fea" fill-opacity="0.23"/><circle cx="157.7" cy="60.8" r="2.72" fill="#9d7fea" fill-opacity="0.1"/><circle cx="102.2" cy="115.9" r="2.17" fill="#9d7fea" fill-opacity="0.11"/><circle cx="196.1" cy="162.4" r="1.58" fill="#9d7fea" fill-opacity="0.16"/><circle cx="56.9" cy="67.8" r="2.15" fill="#9d7fea" fill-opacity="0.21"/><circle cx="3.0" cy="114.0" r="1.23" fill="#9d7fea" fill-opacity="0.16"/><circle cx="111.4" cy="125.9" r="1.43" fill="#9d7fea" fill-opacity="0.13"/><circle cx="18.3" cy="180.2" r="2.19" fill="#9d7fea" fill-opacity="0.17"/><circle cx="531.8" cy="503.5" r="0.95" fill="#9d7fea" fill-opacity="0.07"/><circle cx="447.1" cy="450.4" r="1.67" fill="#e5484d" fill-opacity="0.05"/><circle cx="92.5" cy="291.4" r="1.50" fill="#e5484d" fill-opacity="0.04"/><circle cx="262.3" cy="336.4" r="0.97" fill="#9d7fea" fill-opacity="0.08"/><circle cx="271.6" cy="49.0" r="0.93" fill="#e5484d" fill-opacity="0.11"/><circle cx="189.2" cy="76.1" r="1.58" fill="#e5484d" fill-opacity="0.07"/><circle cx="596.8" cy="233.0" r="1.17" fill="#e5484d" fill-opacity="0.11"/><circle cx="25.4" cy="258.0" r="1.42" fill="#9d7fea" fill-opacity="0.04"/><circle cx="363.1" cy="583.7" r="1.61" fill="#e5484d" fill-opacity="0.1"/><circle cx="296.1" cy="251.5" r="1.57" fill="#e5484d" fill-opacity="0.07"/><circle cx="137.9" cy="222.3" r="1.05" fill="#e5484d" fill-opacity="0.08"/><circle cx="307.3" cy="256.1" r="1.38" fill="#9d7fea" fill-opacity="0.09"/><circle cx="286.2" cy="635.7" r="1.44" fill="#e5484d" fill-opacity="0.1"/><circle cx="345.8" cy="268.3" r="0.94" fill="#9d7fea" fill-opacity="0.06"/><circle cx="397.4" cy="332.1" r="1.49" fill="#e5484d" fill-opacity="0.08"/><circle cx="171.9" cy="231.1" r="1.02" fill="#9d7fea" fill-opacity="0.11"/><circle cx="87.7" cy="154.2" r="1.57" fill="#9d7fea" fill-opacity="0.05"/><circle cx="536.8" cy="288.0" r="1.58" fill="#9d7fea" fill-opacity="0.07"/><circle cx="493.3" cy="332.4" r="0.94" fill="#e5484d" fill-opacity="0.07"/><circle cx="312.6" cy="120.1" r="1.31" fill="#e5484d" fill-opacity="0.05"/><circle cx="199.9" cy="271.4" r="1.34" fill="#9d7fea" fill-opacity="0.05"/><circle cx="200.9" cy="289.1" r="1.20" fill="#9d7fea" fill-opacity="0.1"/><circle cx="342.4" cy="287.6" r="1.01" fill="#9d7fea" fill-opacity="0.08"/><circle cx="144.7" cy="186.9" r="1.18" fill="#e5484d" fill-opacity="0.06"/><circle cx="542.9" cy="478.1" r="1.29" fill="#9d7fea" fill-opacity="0.04"/><circle cx="422.7" cy="42.8" r="1.58" fill="#9d7fea" fill-opacity="0.08"/><circle cx="426.6" cy="611.3" r="1.59" fill="#9d7fea" fill-opacity="0.06"/><circle cx="57.5" cy="273.7" r="1.21" fill="#9d7fea" fill-opacity="0.04"/><circle cx="595.6" cy="182.1" r="1.46" fill="#9d7fea" fill-opacity="0.06"/><circle cx="129.2" cy="491.7" r="1.18" fill="#e5484d" fill-opacity="0.09"/><circle cx="475.4" cy="580.8" r="1.54" fill="#9d7fea" fill-opacity="0.07"/><circle cx="448.9" cy="354.0" r="1.46" fill="#9d7fea" fill-opacity="0.04"/><circle cx="77.0" cy="582.2" r="1.63" fill="#9d7fea" fill-opacity="0.06"/><circle cx="317.2" cy="375.0" r="1.28" fill="#9d7fea" fill-opacity="0.06"/><circle cx="46.3" cy="22.6" r="1.16" fill="#9d7fea" fill-opacity="0.07"/><circle cx="167.6" cy="427.6" r="1.05" fill="#9d7fea" fill-opacity="0.07"/><circle cx="611.0" cy="232.1" r="1.36" fill="#e5484d" fill-opacity="0.11"/><circle cx="401.5" cy="397.3" r="1.23" fill="#9d7fea" fill-opacity="0.07"/><circle cx="43.7" cy="296.9" r="1.26" fill="#9d7fea" fill-opacity="0.11"/><circle cx="24.4" cy="86.9" r="1.31" fill="#9d7fea" fill-opacity="0.06"/><circle cx="302.7" cy="13.5" r="1.38" fill="#9d7fea" fill-opacity="0.06"/><circle cx="435.3" cy="150.1" r="0.90" fill="#9d7fea" fill-opacity="0.08"/><circle cx="2.2" cy="350.1" r="1.58" fill="#e5484d" fill-opacity="0.09"/><circle cx="399.6" cy="358.9" r="1.56" fill="#9d7fea" fill-opacity="0.11"/><circle cx="169.0" cy="66.5" r="0.92" fill="#e5484d" fill-opacity="0.1"/></svg>